<mxfile host="65bd71144e">
    <diagram id="uG6v9C_DAl3AwAriqZ8_" name="MainTaskState">
        <mxGraphModel dx="1346" dy="2212" grid="0" gridSize="10" guides="1" tooltips="1" connect="1" arrows="1" fold="1" page="1" pageScale="1" pageWidth="850" pageHeight="1400" background="#F4F1DE" math="0" shadow="0">
            <root>
                <mxCell id="F0VhMpKQ809ujcyaHpOU-0"/>
                <mxCell id="F0VhMpKQ809ujcyaHpOU-1" parent="F0VhMpKQ809ujcyaHpOU-0"/>
                <mxCell id="4gytgTmIM42XzVyiSyxZ-24" value="MainTask State Diagram" style="shape=umlFrame;whiteSpace=wrap;html=1;width=120;height=30;boundedLbl=1;verticalAlign=middle;align=left;spacingLeft=5;fontSize=12;fillColor=#F2CC8F;strokeColor=#E07A5F;fontColor=#393C56;" parent="F0VhMpKQ809ujcyaHpOU-1" vertex="1">
                    <mxGeometry x="30" y="-1360" width="800" height="550" as="geometry"/>
                </mxCell>
                <mxCell id="4gytgTmIM42XzVyiSyxZ-0" style="edgeStyle=orthogonalEdgeStyle;rounded=0;orthogonalLoop=1;jettySize=auto;html=1;exitX=0.5;exitY=0;exitDx=0;exitDy=0;entryX=0.5;entryY=0;entryDx=0;entryDy=0;fontSize=12;fillColor=#F2CC8F;strokeColor=#E07A5F;fontColor=#393C56;labelBackgroundColor=#F4F1DE;" parent="F0VhMpKQ809ujcyaHpOU-1" source="4gytgTmIM42XzVyiSyxZ-3" target="4gytgTmIM42XzVyiSyxZ-14" edge="1">
                    <mxGeometry relative="1" as="geometry">
                        <Array as="points">
                            <mxPoint x="620" y="-1310"/>
                            <mxPoint x="170" y="-1310"/>
                        </Array>
                    </mxGeometry>
                </mxCell>
                <mxCell id="4gytgTmIM42XzVyiSyxZ-1" value="&lt;div&gt;{NvM_ActFinishMainJob();NvM_ActNop();}&lt;/div&gt;" style="edgeLabel;html=1;align=center;verticalAlign=middle;resizable=0;points=[];fontSize=12;fontColor=#393C56;labelBackgroundColor=#F4F1DE;" parent="4gytgTmIM42XzVyiSyxZ-0" vertex="1" connectable="0">
                    <mxGeometry x="-0.2133" relative="1" as="geometry">
                        <mxPoint x="5" y="-10" as="offset"/>
                    </mxGeometry>
                </mxCell>
                <mxCell id="4gytgTmIM42XzVyiSyxZ-2" value="2" style="edgeLabel;html=1;align=center;verticalAlign=middle;resizable=0;points=[];fontSize=12;fontColor=#393C56;labelBackgroundColor=#F4F1DE;" parent="4gytgTmIM42XzVyiSyxZ-0" vertex="1" connectable="0">
                    <mxGeometry x="-0.9627" y="2" relative="1" as="geometry">
                        <mxPoint x="-6" as="offset"/>
                    </mxGeometry>
                </mxCell>
                <mxCell id="4gytgTmIM42XzVyiSyxZ-3" value="NORMAL_PRIO_JOB" style="html=1;align=center;verticalAlign=middle;rounded=1;absoluteArcSize=1;arcSize=10;dashed=0;fillColor=#F2CC8F;strokeColor=#E07A5F;fontColor=#393C56;" parent="F0VhMpKQ809ujcyaHpOU-1" vertex="1">
                    <mxGeometry x="530" y="-1210" width="180" height="40" as="geometry"/>
                </mxCell>
                <mxCell id="4gytgTmIM42XzVyiSyxZ-4" style="edgeStyle=orthogonalEdgeStyle;rounded=0;orthogonalLoop=1;jettySize=auto;html=1;exitX=0.25;exitY=1;exitDx=0;exitDy=0;entryX=0.5;entryY=1;entryDx=0;entryDy=0;fontSize=12;fillColor=#F2CC8F;strokeColor=#E07A5F;fontColor=#393C56;labelBackgroundColor=#F4F1DE;" parent="F0VhMpKQ809ujcyaHpOU-1" source="4gytgTmIM42XzVyiSyxZ-7" target="4gytgTmIM42XzVyiSyxZ-14" edge="1">
                    <mxGeometry relative="1" as="geometry">
                        <Array as="points">
                            <mxPoint x="575" y="-930"/>
                            <mxPoint x="170" y="-930"/>
                        </Array>
                    </mxGeometry>
                </mxCell>
                <mxCell id="4gytgTmIM42XzVyiSyxZ-5" style="edgeStyle=orthogonalEdgeStyle;rounded=0;orthogonalLoop=1;jettySize=auto;html=1;exitX=0.5;exitY=1;exitDx=0;exitDy=0;entryX=0.2;entryY=1.025;entryDx=0;entryDy=0;entryPerimeter=0;fontSize=12;fillColor=#F2CC8F;strokeColor=#E07A5F;fontColor=#393C56;labelBackgroundColor=#F4F1DE;" parent="F0VhMpKQ809ujcyaHpOU-1" source="4gytgTmIM42XzVyiSyxZ-7" target="4gytgTmIM42XzVyiSyxZ-14" edge="1">
                    <mxGeometry relative="1" as="geometry">
                        <Array as="points">
                            <mxPoint x="620" y="-850"/>
                            <mxPoint x="116" y="-850"/>
                        </Array>
                    </mxGeometry>
                </mxCell>
                <mxCell id="4gytgTmIM42XzVyiSyxZ-6" value="&lt;div&gt;[NvM_QryTrue()&amp;amp;&amp;amp;NvM_QryTrue()]/&lt;/div&gt;&lt;div&gt;{NvM_ActFinishMainJob();NvM_ActNop();}&lt;/div&gt;" style="edgeLabel;html=1;align=center;verticalAlign=middle;resizable=0;points=[];fontSize=12;fontColor=#393C56;labelBackgroundColor=#F4F1DE;" parent="4gytgTmIM42XzVyiSyxZ-5" vertex="1" connectable="0">
                    <mxGeometry x="-0.1203" y="-2" relative="1" as="geometry">
                        <mxPoint y="-18" as="offset"/>
                    </mxGeometry>
                </mxCell>
                <mxCell id="4gytgTmIM42XzVyiSyxZ-7" value="MULTI_BLOCK_JOB" style="html=1;align=center;verticalAlign=middle;rounded=1;absoluteArcSize=1;arcSize=10;dashed=0;fillColor=#F2CC8F;strokeColor=#E07A5F;fontColor=#393C56;" parent="F0VhMpKQ809ujcyaHpOU-1" vertex="1">
                    <mxGeometry x="530" y="-1040" width="180" height="40" as="geometry"/>
                </mxCell>
                <mxCell id="4gytgTmIM42XzVyiSyxZ-8" style="edgeStyle=orthogonalEdgeStyle;rounded=0;orthogonalLoop=1;jettySize=auto;html=1;exitX=1;exitY=0.25;exitDx=0;exitDy=0;entryX=0;entryY=0.5;entryDx=0;entryDy=0;fontSize=12;fillColor=#F2CC8F;strokeColor=#E07A5F;fontColor=#393C56;labelBackgroundColor=#F4F1DE;" parent="F0VhMpKQ809ujcyaHpOU-1" source="4gytgTmIM42XzVyiSyxZ-14" target="4gytgTmIM42XzVyiSyxZ-3" edge="1">
                    <mxGeometry relative="1" as="geometry">
                        <Array as="points">
                            <mxPoint x="290" y="-1100"/>
                            <mxPoint x="290" y="-1190"/>
                        </Array>
                    </mxGeometry>
                </mxCell>
                <mxCell id="4gytgTmIM42XzVyiSyxZ-9" value="&lt;div&gt;[NvM_QryNormalPrioJob()&amp;amp;&amp;amp;NvM_QryTrue()]/&lt;br&gt;&lt;/div&gt;&lt;div&gt;{NvM_ActGetNormalPrioJob();NvM_ActInitMainFsm();}&lt;/div&gt;" style="edgeLabel;html=1;align=center;verticalAlign=middle;resizable=0;points=[];fontSize=12;fontColor=#393C56;labelBackgroundColor=#F4F1DE;" parent="4gytgTmIM42XzVyiSyxZ-8" vertex="1" connectable="0">
                    <mxGeometry x="0.3481" relative="1" as="geometry">
                        <mxPoint x="-50" y="-19" as="offset"/>
                    </mxGeometry>
                </mxCell>
                <mxCell id="4gytgTmIM42XzVyiSyxZ-10" value="1" style="edgeLabel;html=1;align=center;verticalAlign=middle;resizable=0;points=[];fontSize=12;fontColor=#393C56;labelBackgroundColor=#F4F1DE;" parent="4gytgTmIM42XzVyiSyxZ-8" vertex="1" connectable="0">
                    <mxGeometry x="-0.8556" relative="1" as="geometry">
                        <mxPoint x="-16" y="-10" as="offset"/>
                    </mxGeometry>
                </mxCell>
                <mxCell id="4gytgTmIM42XzVyiSyxZ-11" style="edgeStyle=orthogonalEdgeStyle;rounded=0;orthogonalLoop=1;jettySize=auto;html=1;exitX=1;exitY=0.75;exitDx=0;exitDy=0;entryX=0;entryY=0.5;entryDx=0;entryDy=0;fontSize=12;fillColor=#F2CC8F;strokeColor=#E07A5F;fontColor=#393C56;labelBackgroundColor=#F4F1DE;" parent="F0VhMpKQ809ujcyaHpOU-1" source="4gytgTmIM42XzVyiSyxZ-14" target="4gytgTmIM42XzVyiSyxZ-7" edge="1">
                    <mxGeometry relative="1" as="geometry">
                        <Array as="points">
                            <mxPoint x="290" y="-1080"/>
                            <mxPoint x="290" y="-1020"/>
                        </Array>
                    </mxGeometry>
                </mxCell>
                <mxCell id="4gytgTmIM42XzVyiSyxZ-12" value="&lt;div&gt;&lt;br&gt;&lt;/div&gt;&lt;div&gt;[NvM_QryMultiJob()&amp;amp;&amp;amp;NvM_QryTrue()]/&lt;/div&gt;&lt;div&gt;{NvM_ActGetMultiBlockJob();NvM_ActInitMainFsm();}&lt;/div&gt;" style="edgeLabel;html=1;align=center;verticalAlign=middle;resizable=0;points=[];fontSize=12;fontColor=#393C56;labelBackgroundColor=#F4F1DE;" parent="4gytgTmIM42XzVyiSyxZ-11" vertex="1" connectable="0">
                    <mxGeometry x="-0.0182" y="-1" relative="1" as="geometry">
                        <mxPoint x="12" y="21" as="offset"/>
                    </mxGeometry>
                </mxCell>
                <mxCell id="4gytgTmIM42XzVyiSyxZ-13" value="2" style="edgeLabel;html=1;align=center;verticalAlign=middle;resizable=0;points=[];fontSize=12;fontColor=#393C56;labelBackgroundColor=#F4F1DE;" parent="4gytgTmIM42XzVyiSyxZ-11" vertex="1" connectable="0">
                    <mxGeometry x="-0.8364" relative="1" as="geometry">
                        <mxPoint x="-17" y="10" as="offset"/>
                    </mxGeometry>
                </mxCell>
                <mxCell id="4gytgTmIM42XzVyiSyxZ-14" value="IDLE" style="html=1;align=center;verticalAlign=middle;rounded=1;absoluteArcSize=1;arcSize=10;dashed=0;fillColor=#F2CC8F;strokeColor=#E07A5F;fontColor=#393C56;" parent="F0VhMpKQ809ujcyaHpOU-1" vertex="1">
                    <mxGeometry x="80" y="-1110" width="180" height="40" as="geometry"/>
                </mxCell>
                <mxCell id="4gytgTmIM42XzVyiSyxZ-15" style="edgeStyle=orthogonalEdgeStyle;rounded=0;orthogonalLoop=1;jettySize=auto;html=1;exitX=0.5;exitY=1;exitDx=0;exitDy=0;entryX=1;entryY=0.5;entryDx=0;entryDy=0;fontSize=12;fillColor=#F2CC8F;strokeColor=#E07A5F;fontColor=#393C56;labelBackgroundColor=#F4F1DE;" parent="F0VhMpKQ809ujcyaHpOU-1" source="4gytgTmIM42XzVyiSyxZ-3" target="4gytgTmIM42XzVyiSyxZ-3" edge="1">
                    <mxGeometry relative="1" as="geometry"/>
                </mxCell>
                <mxCell id="4gytgTmIM42XzVyiSyxZ-16" value="&lt;div&gt;[NvM_QryMainFsmRunning()&amp;amp;&amp;amp;NvM_QryTrue()]/&lt;/div&gt;&lt;div&gt;{NvM_ActNop();NvM_ActNop();}&lt;/div&gt;" style="edgeLabel;html=1;align=center;verticalAlign=middle;resizable=0;points=[];fontSize=12;fontColor=#393C56;labelBackgroundColor=#F4F1DE;" parent="4gytgTmIM42XzVyiSyxZ-15" vertex="1" connectable="0">
                    <mxGeometry x="-0.4" y="-3" relative="1" as="geometry">
                        <mxPoint x="23" y="17" as="offset"/>
                    </mxGeometry>
                </mxCell>
                <mxCell id="4gytgTmIM42XzVyiSyxZ-17" value="1" style="text;html=1;align=center;verticalAlign=middle;resizable=0;points=[];autosize=1;strokeColor=none;fontSize=12;fontColor=#393C56;" parent="F0VhMpKQ809ujcyaHpOU-1" vertex="1">
                    <mxGeometry x="600" y="-1170" width="20" height="20" as="geometry"/>
                </mxCell>
                <mxCell id="4gytgTmIM42XzVyiSyxZ-18" value="&lt;div&gt;[NvM_QryWriteAllKilled()&amp;amp;&amp;amp;NvM_QryTrue()]/&lt;/div&gt;&lt;div&gt;{NvM_ActKillWriteAll();NvM_ActNop();}&lt;/div&gt;" style="text;html=1;align=center;verticalAlign=middle;resizable=0;points=[];autosize=1;strokeColor=none;fontSize=12;fontColor=#393C56;" parent="F0VhMpKQ809ujcyaHpOU-1" vertex="1">
                    <mxGeometry x="280" y="-960" width="250" height="30" as="geometry"/>
                </mxCell>
                <mxCell id="4gytgTmIM42XzVyiSyxZ-19" style="edgeStyle=orthogonalEdgeStyle;rounded=0;orthogonalLoop=1;jettySize=auto;html=1;exitX=1;exitY=0.5;exitDx=0;exitDy=0;entryX=0.482;entryY=0.003;entryDx=0;entryDy=0;entryPerimeter=0;fontSize=12;fillColor=#F2CC8F;strokeColor=#E07A5F;fontColor=#393C56;labelBackgroundColor=#F4F1DE;" parent="F0VhMpKQ809ujcyaHpOU-1" source="4gytgTmIM42XzVyiSyxZ-7" target="4gytgTmIM42XzVyiSyxZ-7" edge="1">
                    <mxGeometry relative="1" as="geometry">
                        <Array as="points">
                            <mxPoint x="730" y="-1020"/>
                            <mxPoint x="730" y="-1060"/>
                            <mxPoint x="617" y="-1060"/>
                        </Array>
                    </mxGeometry>
                </mxCell>
                <mxCell id="4gytgTmIM42XzVyiSyxZ-20" value="&lt;div&gt;[NvM_QryMainFsmRunning()&amp;amp;&amp;amp;NvM_QryTrue()]/&lt;/div&gt;&lt;div&gt;{NvM_ActNop();NvM_ActNop();}&lt;/div&gt;" style="text;html=1;align=center;verticalAlign=middle;resizable=0;points=[];autosize=1;strokeColor=none;fontSize=12;fontColor=#393C56;" parent="F0VhMpKQ809ujcyaHpOU-1" vertex="1">
                    <mxGeometry x="530" y="-1090" width="280" height="30" as="geometry"/>
                </mxCell>
                <mxCell id="4gytgTmIM42XzVyiSyxZ-21" value="1" style="text;html=1;align=center;verticalAlign=middle;resizable=0;points=[];autosize=1;strokeColor=none;fontSize=12;fontColor=#393C56;" parent="F0VhMpKQ809ujcyaHpOU-1" vertex="1">
                    <mxGeometry x="560" y="-1000" width="20" height="20" as="geometry"/>
                </mxCell>
                <mxCell id="4gytgTmIM42XzVyiSyxZ-22" value="3" style="text;html=1;align=center;verticalAlign=middle;resizable=0;points=[];autosize=1;strokeColor=none;fontSize=12;fontColor=#393C56;" parent="F0VhMpKQ809ujcyaHpOU-1" vertex="1">
                    <mxGeometry x="600" y="-1000" width="20" height="20" as="geometry"/>
                </mxCell>
                <mxCell id="4gytgTmIM42XzVyiSyxZ-23" value="2" style="text;html=1;align=center;verticalAlign=middle;resizable=0;points=[];autosize=1;strokeColor=none;fontSize=12;fontColor=#393C56;" parent="F0VhMpKQ809ujcyaHpOU-1" vertex="1">
                    <mxGeometry x="710" y="-1040" width="20" height="20" as="geometry"/>
                </mxCell>
                <mxCell id="RS2P4Wb_3uJLSVzdvwB8-2" style="edgeStyle=orthogonalEdgeStyle;curved=0;rounded=1;sketch=0;orthogonalLoop=1;jettySize=auto;html=1;exitX=1;exitY=0.5;exitDx=0;exitDy=0;entryX=0;entryY=0.5;entryDx=0;entryDy=0;fontColor=#393C56;strokeColor=#E07A5F;fillColor=#F2CC8F;" parent="F0VhMpKQ809ujcyaHpOU-1" source="RS2P4Wb_3uJLSVzdvwB8-0" target="4gytgTmIM42XzVyiSyxZ-14" edge="1">
                    <mxGeometry relative="1" as="geometry"/>
                </mxCell>
                <mxCell id="RS2P4Wb_3uJLSVzdvwB8-0" value="" style="ellipse;html=1;labelPosition=left;verticalLabelPosition=bottom;spacingBottom=10;align=right;verticalAlign=bottom;resizable=0;rounded=0;sketch=0;fontColor=#393C56;strokeColor=#E07A5F;fillColor=#F2CC8F;" parent="F0VhMpKQ809ujcyaHpOU-1" vertex="1">
                    <mxGeometry x="35" y="-1100" width="20" height="20" as="geometry"/>
                </mxCell>
                <mxCell id="EwxkCrt_NByWyAR1d3FO-1" style="edgeStyle=orthogonalEdgeStyle;curved=0;rounded=1;sketch=0;orthogonalLoop=1;jettySize=auto;html=1;exitX=0.5;exitY=0;exitDx=0;exitDy=0;exitPerimeter=0;fontColor=#393C56;strokeColor=#E07A5F;fillColor=#F2CC8F;" parent="F0VhMpKQ809ujcyaHpOU-1" source="EwxkCrt_NByWyAR1d3FO-0" edge="1">
                    <mxGeometry relative="1" as="geometry">
                        <mxPoint x="444" y="-1186" as="targetPoint"/>
                    </mxGeometry>
                </mxCell>
                <mxCell id="EwxkCrt_NByWyAR1d3FO-2" style="edgeStyle=orthogonalEdgeStyle;curved=0;rounded=1;sketch=0;orthogonalLoop=1;jettySize=auto;html=1;exitX=0.5;exitY=1;exitDx=0;exitDy=0;exitPerimeter=0;fontColor=#393C56;strokeColor=#E07A5F;fillColor=#F2CC8F;" parent="F0VhMpKQ809ujcyaHpOU-1" source="EwxkCrt_NByWyAR1d3FO-0" edge="1">
                    <mxGeometry relative="1" as="geometry">
                        <mxPoint x="444" y="-1022" as="targetPoint"/>
                    </mxGeometry>
                </mxCell>
                <mxCell id="EwxkCrt_NByWyAR1d3FO-0" value="&lt;span&gt;Pop the Job Id from queue&lt;br&gt;And Init the Job FSM&lt;/span&gt;" style="shape=note2;boundedLbl=1;whiteSpace=wrap;html=1;size=25;verticalAlign=middle;align=left;rounded=0;sketch=0;strokeColor=#E07A5F;fillColor=#F2CC8F;labelBackgroundColor=none;fontColor=#3333FF;" parent="F0VhMpKQ809ujcyaHpOU-1" vertex="1">
                    <mxGeometry x="357" y="-1128" width="173" height="60" as="geometry"/>
                </mxCell>
            </root>
        </mxGraphModel>
    </diagram>
    <diagram id="jABvIIFThDwZRqH6YTQv" name="WRITE_BLOCK">
        <mxGraphModel dx="4565" dy="2030" grid="0" gridSize="10" guides="0" tooltips="1" connect="1" arrows="1" fold="0" page="0" pageScale="1" pageWidth="850" pageHeight="1400" background="#F4F1DE" math="0" shadow="0">
            <root>
                <mxCell id="vGp0ROsTJqPObG-DRIV--0"/>
                <mxCell id="vGp0ROsTJqPObG-DRIV--1" parent="vGp0ROsTJqPObG-DRIV--0"/>
                <mxCell id="f1yFBkuRGMCA2Qp98boi-1" value="WRITE_BLOCK:Job state machine" style="shape=umlFrame;whiteSpace=wrap;html=1;width=249;height=27;boundedLbl=1;verticalAlign=middle;align=left;spacingLeft=5;rounded=0;sketch=0;fontColor=#393C56;strokeColor=#E07A5F;fillColor=#F2CC8F;" parent="vGp0ROsTJqPObG-DRIV--1" vertex="1">
                    <mxGeometry x="-984" y="21" width="1980" height="1055" as="geometry"/>
                </mxCell>
                <mxCell id="f1yFBkuRGMCA2Qp98boi-13" style="edgeStyle=orthogonalEdgeStyle;curved=0;rounded=1;sketch=0;orthogonalLoop=1;jettySize=auto;html=1;exitX=0.5;exitY=1;exitDx=0;exitDy=0;entryX=0.5;entryY=0;entryDx=0;entryDy=0;fontColor=#393C56;strokeColor=#E07A5F;fillColor=#F2CC8F;labelBackgroundColor=#F4F1DE;" parent="vGp0ROsTJqPObG-DRIV--1" source="LvhZIpv82qDyTzH4OvU9-0" target="f1yFBkuRGMCA2Qp98boi-11" edge="1">
                    <mxGeometry relative="1" as="geometry"/>
                </mxCell>
                <mxCell id="f1yFBkuRGMCA2Qp98boi-22" style="edgeStyle=orthogonalEdgeStyle;curved=0;rounded=1;sketch=0;orthogonalLoop=1;jettySize=auto;html=1;exitX=0.25;exitY=1;exitDx=0;exitDy=0;entryX=0.5;entryY=0;entryDx=0;entryDy=0;fontColor=#393C56;strokeColor=#E07A5F;fillColor=#F2CC8F;labelBackgroundColor=#F4F1DE;" parent="vGp0ROsTJqPObG-DRIV--1" source="LvhZIpv82qDyTzH4OvU9-0" target="f1yFBkuRGMCA2Qp98boi-17" edge="1">
                    <mxGeometry relative="1" as="geometry"/>
                </mxCell>
                <mxCell id="f1yFBkuRGMCA2Qp98boi-24" style="edgeStyle=orthogonalEdgeStyle;curved=0;rounded=1;sketch=0;orthogonalLoop=1;jettySize=auto;html=1;exitX=0.75;exitY=1;exitDx=0;exitDy=0;entryX=0.5;entryY=0;entryDx=0;entryDy=0;fontColor=#393C56;strokeColor=#E07A5F;fillColor=#F2CC8F;labelBackgroundColor=#F4F1DE;" parent="vGp0ROsTJqPObG-DRIV--1" source="LvhZIpv82qDyTzH4OvU9-0" target="f1yFBkuRGMCA2Qp98boi-23" edge="1">
                    <mxGeometry relative="1" as="geometry"/>
                </mxCell>
                <mxCell id="LvhZIpv82qDyTzH4OvU9-0" value="&lt;span style=&quot;text-align: left&quot;&gt;WRITE_INITIAL&lt;/span&gt;" style="html=1;align=center;verticalAlign=middle;rounded=1;absoluteArcSize=1;arcSize=10;dashed=0;sketch=0;fontColor=#393C56;strokeColor=#E07A5F;fillColor=#F2CC8F;" parent="vGp0ROsTJqPObG-DRIV--1" vertex="1">
                    <mxGeometry x="160" y="250" width="140" height="40" as="geometry"/>
                </mxCell>
                <mxCell id="f1yFBkuRGMCA2Qp98boi-5" style="edgeStyle=orthogonalEdgeStyle;curved=0;rounded=1;sketch=0;orthogonalLoop=1;jettySize=auto;html=1;exitX=1;exitY=0.5;exitDx=0;exitDy=0;entryX=0;entryY=0.5;entryDx=0;entryDy=0;fontColor=#393C56;strokeColor=#E07A5F;fillColor=#F2CC8F;labelBackgroundColor=#F4F1DE;" parent="vGp0ROsTJqPObG-DRIV--1" source="f1yFBkuRGMCA2Qp98boi-4" target="LvhZIpv82qDyTzH4OvU9-0" edge="1">
                    <mxGeometry relative="1" as="geometry"/>
                </mxCell>
                <mxCell id="f1yFBkuRGMCA2Qp98boi-4" value="" style="ellipse;html=1;labelPosition=left;verticalLabelPosition=bottom;spacingBottom=10;align=right;verticalAlign=bottom;resizable=0;rounded=0;sketch=0;fontColor=#393C56;strokeColor=#E07A5F;fillColor=#F2CC8F;" parent="vGp0ROsTJqPObG-DRIV--1" vertex="1">
                    <mxGeometry x="-46" y="260" width="20" height="20" as="geometry"/>
                </mxCell>
                <mxCell id="f1yFBkuRGMCA2Qp98boi-8" style="edgeStyle=orthogonalEdgeStyle;curved=0;rounded=1;sketch=0;orthogonalLoop=1;jettySize=auto;html=1;exitX=0.75;exitY=0;exitDx=0;exitDy=0;entryX=0.25;entryY=0;entryDx=0;entryDy=0;fontColor=#393C56;strokeColor=#E07A5F;fillColor=#F2CC8F;labelBackgroundColor=#F4F1DE;" parent="vGp0ROsTJqPObG-DRIV--1" source="LvhZIpv82qDyTzH4OvU9-0" target="LvhZIpv82qDyTzH4OvU9-0" edge="1">
                    <mxGeometry relative="1" as="geometry">
                        <Array as="points">
                            <mxPoint x="265" y="220"/>
                            <mxPoint x="195" y="220"/>
                        </Array>
                    </mxGeometry>
                </mxCell>
                <mxCell id="f1yFBkuRGMCA2Qp98boi-9" value="&lt;div&gt;[NvM_QryCrcBusy()&amp;amp;&amp;amp;NvM_QryTrue()]/&lt;/div&gt;&lt;div&gt;{NvM_ActCopyNvDataToBuf();NvM_ActWait();}&lt;/div&gt;" style="text;html=1;align=center;verticalAlign=middle;resizable=0;points=[];autosize=1;strokeColor=none;fontColor=#393C56;" parent="vGp0ROsTJqPObG-DRIV--1" vertex="1">
                    <mxGeometry x="95" y="190" width="270" height="30" as="geometry"/>
                </mxCell>
                <mxCell id="f1yFBkuRGMCA2Qp98boi-10" value="1" style="text;html=1;align=center;verticalAlign=middle;resizable=0;points=[];autosize=1;strokeColor=none;fontColor=#393C56;" parent="vGp0ROsTJqPObG-DRIV--1" vertex="1">
                    <mxGeometry x="260" y="230" width="20" height="20" as="geometry"/>
                </mxCell>
                <mxCell id="CGjbf2BbhkaM5rvyOxDN-1" value="" style="edgeStyle=orthogonalEdgeStyle;rounded=0;orthogonalLoop=1;jettySize=auto;html=1;labelBackgroundColor=#F4F1DE;strokeColor=#E07A5F;fontColor=#393C56;" parent="vGp0ROsTJqPObG-DRIV--1" source="f1yFBkuRGMCA2Qp98boi-11" edge="1">
                    <mxGeometry relative="1" as="geometry">
                        <mxPoint x="230" y="740" as="targetPoint"/>
                    </mxGeometry>
                </mxCell>
                <mxCell id="f1yFBkuRGMCA2Qp98boi-11" value="&lt;div style=&quot;text-align: left&quot;&gt;&lt;span&gt;FSM_FINISHED&lt;/span&gt;&lt;/div&gt;" style="html=1;align=center;verticalAlign=middle;rounded=1;absoluteArcSize=1;arcSize=10;dashed=0;sketch=0;fontColor=#393C56;strokeColor=#E07A5F;fillColor=#F2CC8F;" parent="vGp0ROsTJqPObG-DRIV--1" vertex="1">
                    <mxGeometry x="160" y="600" width="140" height="40" as="geometry"/>
                </mxCell>
                <mxCell id="f1yFBkuRGMCA2Qp98boi-14" value="&lt;font color=&quot;#3333ff&quot;&gt;/*check if value modified */&lt;/font&gt;&lt;br&gt;[NvM_QryCRCCompMechanismSkipWrite()&amp;amp;&amp;amp;NvM_QryTrue()]/&lt;br&gt;{NvM_ActUpdateNvState();NvM_ActFinishWriteBlock();}" style="text;whiteSpace=wrap;html=1;fontColor=#393C56;" parent="vGp0ROsTJqPObG-DRIV--1" vertex="1">
                    <mxGeometry x="76" y="383" width="360" height="60" as="geometry"/>
                </mxCell>
                <mxCell id="f1yFBkuRGMCA2Qp98boi-16" value="2" style="text;html=1;align=center;verticalAlign=middle;resizable=0;points=[];autosize=1;strokeColor=none;fontColor=#393C56;" parent="vGp0ROsTJqPObG-DRIV--1" vertex="1">
                    <mxGeometry x="211" y="291" width="20" height="20" as="geometry"/>
                </mxCell>
                <mxCell id="f1yFBkuRGMCA2Qp98boi-31" style="edgeStyle=orthogonalEdgeStyle;curved=0;rounded=1;sketch=0;orthogonalLoop=1;jettySize=auto;html=1;exitX=0.5;exitY=1;exitDx=0;exitDy=0;entryX=0.5;entryY=0;entryDx=0;entryDy=0;fontColor=#393C56;strokeColor=#E07A5F;fillColor=#F2CC8F;labelBackgroundColor=#F4F1DE;" parent="vGp0ROsTJqPObG-DRIV--1" source="f1yFBkuRGMCA2Qp98boi-17" target="f1yFBkuRGMCA2Qp98boi-27" edge="1">
                    <mxGeometry relative="1" as="geometry"/>
                </mxCell>
                <mxCell id="f1yFBkuRGMCA2Qp98boi-37" style="edgeStyle=orthogonalEdgeStyle;curved=0;rounded=1;sketch=0;orthogonalLoop=1;jettySize=auto;html=1;entryX=0.5;entryY=0;entryDx=0;entryDy=0;fontColor=#393C56;strokeColor=#E07A5F;fillColor=#F2CC8F;exitX=0.196;exitY=1.013;exitDx=0;exitDy=0;exitPerimeter=0;labelBackgroundColor=#F4F1DE;" parent="vGp0ROsTJqPObG-DRIV--1" source="f1yFBkuRGMCA2Qp98boi-17" target="f1yFBkuRGMCA2Qp98boi-33" edge="1">
                    <mxGeometry relative="1" as="geometry">
                        <mxPoint x="-130" y="450" as="sourcePoint"/>
                    </mxGeometry>
                </mxCell>
                <mxCell id="f1yFBkuRGMCA2Qp98boi-42" style="edgeStyle=orthogonalEdgeStyle;curved=0;rounded=1;sketch=0;orthogonalLoop=1;jettySize=auto;html=1;exitX=0.75;exitY=1;exitDx=0;exitDy=0;entryX=0.25;entryY=0;entryDx=0;entryDy=0;fontColor=#393C56;strokeColor=#E07A5F;fillColor=#F2CC8F;labelBackgroundColor=#F4F1DE;" parent="vGp0ROsTJqPObG-DRIV--1" source="f1yFBkuRGMCA2Qp98boi-17" target="f1yFBkuRGMCA2Qp98boi-11" edge="1">
                    <mxGeometry relative="1" as="geometry"/>
                </mxCell>
                <mxCell id="f1yFBkuRGMCA2Qp98boi-17" value="&lt;div style=&quot;text-align: left&quot;&gt;WRITE_TEST_PRI_READ&lt;br&gt;&lt;/div&gt;" style="html=1;align=center;verticalAlign=middle;rounded=1;absoluteArcSize=1;arcSize=10;dashed=0;sketch=0;fontColor=#393C56;strokeColor=#E07A5F;fillColor=#F2CC8F;" parent="vGp0ROsTJqPObG-DRIV--1" vertex="1">
                    <mxGeometry x="-160" y="400" width="160" height="40" as="geometry"/>
                </mxCell>
                <mxCell id="f1yFBkuRGMCA2Qp98boi-19" value="[NvM_QryRedundantBlock()&amp;amp;&amp;amp;&lt;br&gt;NvM_QryTrue()]" style="text;html=1;align=center;verticalAlign=middle;resizable=0;points=[];autosize=1;strokeColor=none;fontColor=#393C56;" parent="vGp0ROsTJqPObG-DRIV--1" vertex="1">
                    <mxGeometry x="1" y="314" width="180" height="30" as="geometry"/>
                </mxCell>
                <mxCell id="f1yFBkuRGMCA2Qp98boi-20" value="3" style="text;html=1;align=center;verticalAlign=middle;resizable=0;points=[];autosize=1;strokeColor=none;fontColor=#393C56;" parent="vGp0ROsTJqPObG-DRIV--1" vertex="1">
                    <mxGeometry x="170" y="290" width="20" height="20" as="geometry"/>
                </mxCell>
                <mxCell id="f1yFBkuRGMCA2Qp98boi-47" style="edgeStyle=orthogonalEdgeStyle;curved=0;rounded=1;sketch=0;orthogonalLoop=1;jettySize=auto;html=1;entryX=0.75;entryY=0;entryDx=0;entryDy=0;fontColor=#393C56;strokeColor=#E07A5F;fillColor=#F2CC8F;exitX=0.131;exitY=0.978;exitDx=0;exitDy=0;exitPerimeter=0;labelBackgroundColor=#F4F1DE;" parent="vGp0ROsTJqPObG-DRIV--1" source="f1yFBkuRGMCA2Qp98boi-23" target="f1yFBkuRGMCA2Qp98boi-11" edge="1">
                    <mxGeometry relative="1" as="geometry">
                        <mxPoint x="513" y="444" as="sourcePoint"/>
                        <Array as="points">
                            <mxPoint x="511" y="444"/>
                            <mxPoint x="510" y="520"/>
                            <mxPoint x="265" y="520"/>
                        </Array>
                    </mxGeometry>
                </mxCell>
                <mxCell id="f1yFBkuRGMCA2Qp98boi-52" style="edgeStyle=orthogonalEdgeStyle;curved=0;rounded=1;sketch=0;orthogonalLoop=1;jettySize=auto;html=1;exitX=0.25;exitY=1;exitDx=0;exitDy=0;entryX=1;entryY=0.5;entryDx=0;entryDy=0;fontColor=#393C56;strokeColor=#E07A5F;fillColor=#F2CC8F;labelBackgroundColor=#F4F1DE;" parent="vGp0ROsTJqPObG-DRIV--1" source="f1yFBkuRGMCA2Qp98boi-23" target="f1yFBkuRGMCA2Qp98boi-11" edge="1">
                    <mxGeometry relative="1" as="geometry"/>
                </mxCell>
                <mxCell id="f1yFBkuRGMCA2Qp98boi-23" value="&lt;div style=&quot;text-align: left&quot;&gt;WRITE_WR_DATA_CRC_2&lt;br&gt;&lt;/div&gt;" style="html=1;align=center;verticalAlign=middle;rounded=1;absoluteArcSize=1;arcSize=10;dashed=0;sketch=0;fontColor=#393C56;strokeColor=#E07A5F;fillColor=#F2CC8F;" parent="vGp0ROsTJqPObG-DRIV--1" vertex="1">
                    <mxGeometry x="490" y="400" width="160" height="40" as="geometry"/>
                </mxCell>
                <mxCell id="f1yFBkuRGMCA2Qp98boi-25" value="{NvM_ActWriteNvBlock(),NvM_ActNop();}" style="text;html=1;align=center;verticalAlign=middle;resizable=0;points=[];autosize=1;strokeColor=none;fontColor=#393C56;" parent="vGp0ROsTJqPObG-DRIV--1" vertex="1">
                    <mxGeometry x="260" y="320" width="240" height="20" as="geometry"/>
                </mxCell>
                <mxCell id="f1yFBkuRGMCA2Qp98boi-26" value="4" style="text;html=1;align=center;verticalAlign=middle;resizable=0;points=[];autosize=1;strokeColor=none;fontColor=#393C56;" parent="vGp0ROsTJqPObG-DRIV--1" vertex="1">
                    <mxGeometry x="260" y="290" width="20" height="20" as="geometry"/>
                </mxCell>
                <mxCell id="f1yFBkuRGMCA2Qp98boi-62" style="edgeStyle=orthogonalEdgeStyle;curved=0;rounded=1;sketch=0;orthogonalLoop=1;jettySize=auto;html=1;exitX=0;exitY=0.5;exitDx=0;exitDy=0;entryX=1;entryY=0.5;entryDx=0;entryDy=0;fontColor=#393C56;strokeColor=#E07A5F;fillColor=#F2CC8F;labelBackgroundColor=#F4F1DE;" parent="vGp0ROsTJqPObG-DRIV--1" source="f1yFBkuRGMCA2Qp98boi-27" target="f1yFBkuRGMCA2Qp98boi-33" edge="1">
                    <mxGeometry relative="1" as="geometry"/>
                </mxCell>
                <mxCell id="f1yFBkuRGMCA2Qp98boi-66" style="edgeStyle=orthogonalEdgeStyle;curved=0;rounded=1;sketch=0;orthogonalLoop=1;jettySize=auto;html=1;exitX=0.25;exitY=1;exitDx=0;exitDy=0;entryX=1;entryY=1;entryDx=0;entryDy=0;fontColor=#393C56;strokeColor=#E07A5F;fillColor=#F2CC8F;labelBackgroundColor=#F4F1DE;" parent="vGp0ROsTJqPObG-DRIV--1" source="f1yFBkuRGMCA2Qp98boi-27" target="f1yFBkuRGMCA2Qp98boi-33" edge="1">
                    <mxGeometry relative="1" as="geometry">
                        <Array as="points">
                            <mxPoint x="-122" y="670"/>
                            <mxPoint x="-470" y="670"/>
                        </Array>
                    </mxGeometry>
                </mxCell>
                <mxCell id="f1yFBkuRGMCA2Qp98boi-27" value="WRITE_TEST_SEC_READ" style="html=1;align=center;verticalAlign=middle;rounded=1;absoluteArcSize=1;arcSize=10;dashed=0;sketch=0;fontColor=#393C56;strokeColor=#E07A5F;fillColor=#F2CC8F;" parent="vGp0ROsTJqPObG-DRIV--1" vertex="1">
                    <mxGeometry x="-165" y="600" width="170" height="40" as="geometry"/>
                </mxCell>
                <mxCell id="f1yFBkuRGMCA2Qp98boi-28" style="edgeStyle=orthogonalEdgeStyle;curved=0;rounded=1;sketch=0;orthogonalLoop=1;jettySize=auto;html=1;exitX=0.25;exitY=0;exitDx=0;exitDy=0;entryX=0;entryY=0.5;entryDx=0;entryDy=0;fontColor=#393C56;strokeColor=#E07A5F;fillColor=#F2CC8F;labelBackgroundColor=#F4F1DE;" parent="vGp0ROsTJqPObG-DRIV--1" source="f1yFBkuRGMCA2Qp98boi-17" target="f1yFBkuRGMCA2Qp98boi-17" edge="1">
                    <mxGeometry relative="1" as="geometry">
                        <Array as="points">
                            <mxPoint x="-120" y="380"/>
                            <mxPoint x="-230" y="380"/>
                            <mxPoint x="-230" y="420"/>
                        </Array>
                    </mxGeometry>
                </mxCell>
                <mxCell id="f1yFBkuRGMCA2Qp98boi-29" value="1" style="text;html=1;align=center;verticalAlign=middle;resizable=0;points=[];autosize=1;strokeColor=none;fontColor=#393C56;" parent="vGp0ROsTJqPObG-DRIV--1" vertex="1">
                    <mxGeometry x="-120" y="380" width="20" height="20" as="geometry"/>
                </mxCell>
                <mxCell id="f1yFBkuRGMCA2Qp98boi-30" value="[NvM_QryNvBusy()&amp;amp;&amp;amp;NvM_QryTrue()]" style="text;html=1;align=center;verticalAlign=middle;resizable=0;points=[];autosize=1;strokeColor=none;fontColor=#393C56;" parent="vGp0ROsTJqPObG-DRIV--1" vertex="1">
                    <mxGeometry x="-310" y="360" width="220" height="20" as="geometry"/>
                </mxCell>
                <mxCell id="f1yFBkuRGMCA2Qp98boi-32" value="&lt;div&gt;[NvM_QryRedundantBlock()&amp;amp;&amp;amp;NvM_QryLastResultOk()]/&lt;/div&gt;&lt;div&gt;{NvM_ActSetupOther();NvM_ActTestBlockBlank();}&lt;/div&gt;" style="text;html=1;align=center;verticalAlign=middle;resizable=0;points=[];autosize=1;strokeColor=none;fontColor=#393C56;" parent="vGp0ROsTJqPObG-DRIV--1" vertex="1">
                    <mxGeometry x="-220" y="560" width="320" height="30" as="geometry"/>
                </mxCell>
                <mxCell id="f1yFBkuRGMCA2Qp98boi-73" style="edgeStyle=orthogonalEdgeStyle;curved=0;rounded=1;sketch=0;orthogonalLoop=1;jettySize=auto;html=1;exitX=0.75;exitY=1;exitDx=0;exitDy=0;entryX=0.5;entryY=1;entryDx=0;entryDy=0;fontColor=#393C56;strokeColor=#E07A5F;fillColor=#F2CC8F;labelBackgroundColor=#F4F1DE;" parent="vGp0ROsTJqPObG-DRIV--1" source="f1yFBkuRGMCA2Qp98boi-33" target="f1yFBkuRGMCA2Qp98boi-23" edge="1">
                    <mxGeometry relative="1" as="geometry">
                        <Array as="points">
                            <mxPoint x="-512" y="780"/>
                            <mxPoint x="570" y="780"/>
                        </Array>
                    </mxGeometry>
                </mxCell>
                <mxCell id="f1yFBkuRGMCA2Qp98boi-77" style="edgeStyle=orthogonalEdgeStyle;curved=0;rounded=1;sketch=0;orthogonalLoop=1;jettySize=auto;html=1;exitX=0.5;exitY=1;exitDx=0;exitDy=0;entryX=1;entryY=1;entryDx=0;entryDy=0;fontColor=#393C56;strokeColor=#E07A5F;fillColor=#F2CC8F;labelBackgroundColor=#F4F1DE;" parent="vGp0ROsTJqPObG-DRIV--1" source="f1yFBkuRGMCA2Qp98boi-33" target="f1yFBkuRGMCA2Qp98boi-23" edge="1">
                    <mxGeometry relative="1" as="geometry">
                        <Array as="points">
                            <mxPoint x="-555" y="900"/>
                            <mxPoint x="650" y="900"/>
                        </Array>
                    </mxGeometry>
                </mxCell>
                <mxCell id="f1yFBkuRGMCA2Qp98boi-33" value="WRITE_WR_DATA_CRC_1" style="html=1;align=center;verticalAlign=middle;rounded=1;absoluteArcSize=1;arcSize=10;dashed=0;sketch=0;fontColor=#393C56;strokeColor=#E07A5F;fillColor=#F2CC8F;" parent="vGp0ROsTJqPObG-DRIV--1" vertex="1">
                    <mxGeometry x="-640" y="600" width="170" height="40" as="geometry"/>
                </mxCell>
                <mxCell id="f1yFBkuRGMCA2Qp98boi-36" value="2" style="text;html=1;align=center;verticalAlign=middle;resizable=0;points=[];autosize=1;strokeColor=none;fontColor=#393C56;" parent="vGp0ROsTJqPObG-DRIV--1" vertex="1">
                    <mxGeometry x="-100" y="440" width="20" height="20" as="geometry"/>
                </mxCell>
                <mxCell id="f1yFBkuRGMCA2Qp98boi-38" value="3" style="text;html=1;align=center;verticalAlign=middle;resizable=0;points=[];autosize=1;strokeColor=none;fontColor=#393C56;" parent="vGp0ROsTJqPObG-DRIV--1" vertex="1">
                    <mxGeometry x="-150" y="440" width="20" height="20" as="geometry"/>
                </mxCell>
                <mxCell id="f1yFBkuRGMCA2Qp98boi-40" value="&lt;div&gt;[NvM_QryRedundantBlock()&amp;amp;&amp;amp;NvM_QryTrue()]/&lt;/div&gt;&lt;div&gt;{NvM_ActWriteNvBlock();NvM_ActNop();}&lt;/div&gt;" style="text;html=1;align=center;verticalAlign=middle;resizable=0;points=[];autosize=1;strokeColor=none;fontColor=#393C56;" parent="vGp0ROsTJqPObG-DRIV--1" vertex="1">
                    <mxGeometry x="-410" y="490" width="270" height="30" as="geometry"/>
                </mxCell>
                <mxCell id="f1yFBkuRGMCA2Qp98boi-43" value="4" style="text;html=1;align=center;verticalAlign=middle;resizable=0;points=[];autosize=1;strokeColor=none;fontColor=#393C56;" parent="vGp0ROsTJqPObG-DRIV--1" vertex="1">
                    <mxGeometry x="-60" y="440" width="20" height="20" as="geometry"/>
                </mxCell>
                <mxCell id="f1yFBkuRGMCA2Qp98boi-46" value="&lt;div&gt;[NvM_QryNvBusy()&amp;amp;&amp;amp;NvM_QryTrue()]/&lt;/div&gt;&lt;div&gt;{NvM_ActWait();NvM_ActNop();}&lt;/div&gt;" style="text;html=1;align=center;verticalAlign=middle;resizable=0;points=[];autosize=1;strokeColor=none;fontColor=#393C56;" parent="vGp0ROsTJqPObG-DRIV--1" vertex="1">
                    <mxGeometry x="610" y="340" width="220" height="30" as="geometry"/>
                </mxCell>
                <mxCell id="f1yFBkuRGMCA2Qp98boi-48" style="edgeStyle=orthogonalEdgeStyle;curved=0;rounded=1;sketch=0;orthogonalLoop=1;jettySize=auto;html=1;exitX=1;exitY=0.5;exitDx=0;exitDy=0;entryX=0.878;entryY=-0.071;entryDx=0;entryDy=0;entryPerimeter=0;fontColor=#393C56;strokeColor=#E07A5F;fillColor=#F2CC8F;labelBackgroundColor=#F4F1DE;" parent="vGp0ROsTJqPObG-DRIV--1" source="f1yFBkuRGMCA2Qp98boi-23" target="f1yFBkuRGMCA2Qp98boi-23" edge="1">
                    <mxGeometry relative="1" as="geometry">
                        <Array as="points">
                            <mxPoint x="770" y="420"/>
                            <mxPoint x="770" y="370"/>
                            <mxPoint x="631" y="370"/>
                        </Array>
                    </mxGeometry>
                </mxCell>
                <mxCell id="f1yFBkuRGMCA2Qp98boi-49" value="1" style="text;html=1;align=center;verticalAlign=middle;resizable=0;points=[];autosize=1;strokeColor=none;fontColor=#393C56;" parent="vGp0ROsTJqPObG-DRIV--1" vertex="1">
                    <mxGeometry x="650" y="400" width="20" height="20" as="geometry"/>
                </mxCell>
                <mxCell id="f1yFBkuRGMCA2Qp98boi-50" value="&lt;div&gt;[NvM_QryLastResultOk()&amp;amp;&amp;amp;NvM_QryTrue()]/&lt;/div&gt;&lt;div&gt;{NvM_ActUpdateNvState();NvM_ActFinishWriteBlock();}&lt;/div&gt;" style="text;html=1;align=center;verticalAlign=middle;resizable=0;points=[];autosize=1;strokeColor=none;fontColor=#393C56;" parent="vGp0ROsTJqPObG-DRIV--1" vertex="1">
                    <mxGeometry x="240" y="490" width="310" height="30" as="geometry"/>
                </mxCell>
                <mxCell id="f1yFBkuRGMCA2Qp98boi-51" value="2" style="text;html=1;align=center;verticalAlign=middle;resizable=0;points=[];autosize=1;strokeColor=none;fontColor=#393C56;" parent="vGp0ROsTJqPObG-DRIV--1" vertex="1">
                    <mxGeometry x="490" y="440" width="20" height="20" as="geometry"/>
                </mxCell>
                <mxCell id="f1yFBkuRGMCA2Qp98boi-53" value="&lt;div&gt;[NvM_QryWriteRetriesExceeded()&amp;amp;&amp;amp;NvM_QryTrue()]/&lt;/div&gt;&lt;div&gt;{NvM_ActUpdateNvState();NvM_ActFinishWriteBlock();}&lt;/div&gt;" style="text;html=1;align=center;verticalAlign=middle;resizable=0;points=[];autosize=1;strokeColor=none;fontColor=#393C56;" parent="vGp0ROsTJqPObG-DRIV--1" vertex="1">
                    <mxGeometry x="300" y="585" width="310" height="30" as="geometry"/>
                </mxCell>
                <mxCell id="f1yFBkuRGMCA2Qp98boi-54" value="3" style="text;html=1;align=center;verticalAlign=middle;resizable=0;points=[];autosize=1;strokeColor=none;fontColor=#393C56;" parent="vGp0ROsTJqPObG-DRIV--1" vertex="1">
                    <mxGeometry x="530" y="440" width="20" height="20" as="geometry"/>
                </mxCell>
                <mxCell id="f1yFBkuRGMCA2Qp98boi-55" style="edgeStyle=orthogonalEdgeStyle;curved=0;rounded=1;sketch=0;orthogonalLoop=1;jettySize=auto;html=1;exitX=0.75;exitY=1;exitDx=0;exitDy=0;entryX=1;entryY=0.75;entryDx=0;entryDy=0;fontColor=#393C56;strokeColor=#E07A5F;fillColor=#F2CC8F;labelBackgroundColor=#F4F1DE;" parent="vGp0ROsTJqPObG-DRIV--1" source="f1yFBkuRGMCA2Qp98boi-23" target="f1yFBkuRGMCA2Qp98boi-23" edge="1">
                    <mxGeometry relative="1" as="geometry">
                        <Array as="points">
                            <mxPoint x="610" y="520"/>
                            <mxPoint x="770" y="520"/>
                            <mxPoint x="770" y="430"/>
                        </Array>
                    </mxGeometry>
                </mxCell>
                <mxCell id="f1yFBkuRGMCA2Qp98boi-56" value="4" style="text;html=1;align=center;verticalAlign=middle;resizable=0;points=[];autosize=1;strokeColor=none;fontColor=#393C56;" parent="vGp0ROsTJqPObG-DRIV--1" vertex="1">
                    <mxGeometry x="610" y="440" width="20" height="20" as="geometry"/>
                </mxCell>
                <mxCell id="f1yFBkuRGMCA2Qp98boi-57" value="{NvM_ActWriteNvBlock(),NvM_ActNop();}" style="text;html=1;align=center;verticalAlign=middle;resizable=0;points=[];autosize=1;strokeColor=none;fontColor=#393C56;" parent="vGp0ROsTJqPObG-DRIV--1" vertex="1">
                    <mxGeometry x="600" y="495" width="240" height="20" as="geometry"/>
                </mxCell>
                <mxCell id="f1yFBkuRGMCA2Qp98boi-59" style="edgeStyle=orthogonalEdgeStyle;curved=0;rounded=1;sketch=0;orthogonalLoop=1;jettySize=auto;html=1;exitX=0.75;exitY=1;exitDx=0;exitDy=0;entryX=1;entryY=0.75;entryDx=0;entryDy=0;fontColor=#393C56;strokeColor=#E07A5F;fillColor=#F2CC8F;labelBackgroundColor=#F4F1DE;" parent="vGp0ROsTJqPObG-DRIV--1" source="f1yFBkuRGMCA2Qp98boi-27" target="f1yFBkuRGMCA2Qp98boi-27" edge="1">
                    <mxGeometry relative="1" as="geometry">
                        <Array as="points">
                            <mxPoint x="-38" y="660"/>
                            <mxPoint x="70" y="660"/>
                            <mxPoint x="70" y="630"/>
                        </Array>
                    </mxGeometry>
                </mxCell>
                <mxCell id="f1yFBkuRGMCA2Qp98boi-60" value="&lt;div&gt;[NvM_QryNvBusy()&amp;amp;&amp;amp;NvM_QryTrue()]/&lt;/div&gt;&lt;div&gt;{NvM_ActWait();NvM_ActNop();}&lt;/div&gt;" style="text;html=1;align=center;verticalAlign=middle;resizable=0;points=[];autosize=1;strokeColor=none;fontColor=#393C56;" parent="vGp0ROsTJqPObG-DRIV--1" vertex="1">
                    <mxGeometry x="-60" y="660" width="220" height="30" as="geometry"/>
                </mxCell>
                <mxCell id="f1yFBkuRGMCA2Qp98boi-61" value="1" style="text;html=1;align=center;verticalAlign=middle;resizable=0;points=[];autosize=1;strokeColor=none;fontColor=#393C56;" parent="vGp0ROsTJqPObG-DRIV--1" vertex="1">
                    <mxGeometry x="-60" y="640" width="20" height="20" as="geometry"/>
                </mxCell>
                <mxCell id="f1yFBkuRGMCA2Qp98boi-63" value="&lt;div&gt;[NvM_QryLastResultOk()&amp;amp;&amp;amp;NvM_QryTrue()]/&lt;/div&gt;&lt;div&gt;{NvM_ActSetupOther();NvM_ActWriteNvBlock();}&lt;/div&gt;" style="text;html=1;align=center;verticalAlign=middle;resizable=0;points=[];autosize=1;strokeColor=none;fontColor=#393C56;" parent="vGp0ROsTJqPObG-DRIV--1" vertex="1">
                    <mxGeometry x="-460" y="590" width="280" height="30" as="geometry"/>
                </mxCell>
                <mxCell id="f1yFBkuRGMCA2Qp98boi-65" value="2" style="text;html=1;align=center;verticalAlign=middle;resizable=0;points=[];autosize=1;strokeColor=none;fontColor=#393C56;" parent="vGp0ROsTJqPObG-DRIV--1" vertex="1">
                    <mxGeometry x="-185" y="600" width="20" height="20" as="geometry"/>
                </mxCell>
                <mxCell id="f1yFBkuRGMCA2Qp98boi-67" value="&lt;div&gt;[NvM_QryTrue()&amp;amp;&amp;amp;NvM_QryTrue()]/&lt;/div&gt;&lt;div&gt;{NvM_ActWriteNvBlock();NvM_ActNop();}&lt;/div&gt;" style="text;html=1;align=center;verticalAlign=middle;resizable=0;points=[];autosize=1;strokeColor=none;fontColor=#393C56;" parent="vGp0ROsTJqPObG-DRIV--1" vertex="1">
                    <mxGeometry x="-450" y="635" width="240" height="30" as="geometry"/>
                </mxCell>
                <mxCell id="f1yFBkuRGMCA2Qp98boi-69" value="3" style="text;html=1;align=center;verticalAlign=middle;resizable=0;points=[];autosize=1;strokeColor=none;fontColor=#393C56;" parent="vGp0ROsTJqPObG-DRIV--1" vertex="1">
                    <mxGeometry x="-140" y="640" width="20" height="20" as="geometry"/>
                </mxCell>
                <mxCell id="f1yFBkuRGMCA2Qp98boi-70" style="edgeStyle=orthogonalEdgeStyle;curved=0;rounded=1;sketch=0;orthogonalLoop=1;jettySize=auto;html=1;exitX=0;exitY=0.5;exitDx=0;exitDy=0;entryX=0.25;entryY=0;entryDx=0;entryDy=0;fontColor=#393C56;strokeColor=#E07A5F;fillColor=#F2CC8F;labelBackgroundColor=#F4F1DE;" parent="vGp0ROsTJqPObG-DRIV--1" source="f1yFBkuRGMCA2Qp98boi-33" target="f1yFBkuRGMCA2Qp98boi-33" edge="1">
                    <mxGeometry relative="1" as="geometry">
                        <Array as="points">
                            <mxPoint x="-760" y="620"/>
                            <mxPoint x="-760" y="520"/>
                            <mxPoint x="-598" y="520"/>
                        </Array>
                    </mxGeometry>
                </mxCell>
                <mxCell id="f1yFBkuRGMCA2Qp98boi-71" value="&lt;div&gt;[NvM_QryNvBusy()&amp;amp;&amp;amp;NvM_QryTrue()]/&lt;/div&gt;&lt;div&gt;{NvM_ActWait();NvM_ActNop();}&lt;/div&gt;" style="text;html=1;align=center;verticalAlign=middle;resizable=0;points=[];autosize=1;strokeColor=none;fontColor=#393C56;" parent="vGp0ROsTJqPObG-DRIV--1" vertex="1">
                    <mxGeometry x="-780" y="485" width="220" height="30" as="geometry"/>
                </mxCell>
                <mxCell id="f1yFBkuRGMCA2Qp98boi-72" value="1" style="text;html=1;align=center;verticalAlign=middle;resizable=0;points=[];autosize=1;strokeColor=none;fontColor=#393C56;" parent="vGp0ROsTJqPObG-DRIV--1" vertex="1">
                    <mxGeometry x="-661" y="602" width="20" height="20" as="geometry"/>
                </mxCell>
                <mxCell id="f1yFBkuRGMCA2Qp98boi-75" value="2" style="text;html=1;align=center;verticalAlign=middle;resizable=0;points=[];autosize=1;strokeColor=none;fontColor=#393C56;" parent="vGp0ROsTJqPObG-DRIV--1" vertex="1">
                    <mxGeometry x="-510" y="640" width="20" height="20" as="geometry"/>
                </mxCell>
                <mxCell id="f1yFBkuRGMCA2Qp98boi-76" value="&lt;div&gt;[NvM_QryLastResultOk()&amp;amp;&amp;amp;NvM_QryTrue()]/&lt;/div&gt;&lt;div&gt;{NvM_ActSetupOther();NvM_ActWriteNvBlock();}&lt;/div&gt;" style="text;html=1;align=center;verticalAlign=middle;resizable=0;points=[];autosize=1;strokeColor=none;fontColor=#393C56;" parent="vGp0ROsTJqPObG-DRIV--1" vertex="1">
                    <mxGeometry x="-200" y="745" width="280" height="30" as="geometry"/>
                </mxCell>
                <mxCell id="f1yFBkuRGMCA2Qp98boi-78" value="3" style="text;html=1;align=center;verticalAlign=middle;resizable=0;points=[];autosize=1;strokeColor=none;fontColor=#393C56;" parent="vGp0ROsTJqPObG-DRIV--1" vertex="1">
                    <mxGeometry x="-550" y="640" width="20" height="20" as="geometry"/>
                </mxCell>
                <mxCell id="f1yFBkuRGMCA2Qp98boi-80" value="&lt;div&gt;[NvM_QryWriteRetriesExceeded()&amp;amp;&amp;amp;NvM_QryTrue()]/&lt;/div&gt;&lt;div&gt;{NvM_ActSetupOther();NvM_ActWriteNvBlock();}&lt;/div&gt;" style="text;html=1;align=center;verticalAlign=middle;resizable=0;points=[];autosize=1;strokeColor=none;fontColor=#393C56;" parent="vGp0ROsTJqPObG-DRIV--1" vertex="1">
                    <mxGeometry x="-208" y="864" width="297" height="32" as="geometry"/>
                </mxCell>
                <mxCell id="f1yFBkuRGMCA2Qp98boi-81" style="edgeStyle=orthogonalEdgeStyle;curved=0;rounded=1;sketch=0;orthogonalLoop=1;jettySize=auto;html=1;exitX=0.25;exitY=1;exitDx=0;exitDy=0;entryX=0;entryY=0.75;entryDx=0;entryDy=0;fontColor=#393C56;strokeColor=#E07A5F;fillColor=#F2CC8F;labelBackgroundColor=#F4F1DE;" parent="vGp0ROsTJqPObG-DRIV--1" source="f1yFBkuRGMCA2Qp98boi-33" target="f1yFBkuRGMCA2Qp98boi-33" edge="1">
                    <mxGeometry relative="1" as="geometry">
                        <Array as="points">
                            <mxPoint x="-597" y="700"/>
                            <mxPoint x="-760" y="700"/>
                            <mxPoint x="-760" y="630"/>
                        </Array>
                    </mxGeometry>
                </mxCell>
                <mxCell id="f1yFBkuRGMCA2Qp98boi-82" value="{NvM_ActWriteNvBlock(),NvM_ActNop();}" style="text;html=1;align=center;verticalAlign=middle;resizable=0;points=[];autosize=1;strokeColor=none;fontColor=#393C56;" parent="vGp0ROsTJqPObG-DRIV--1" vertex="1">
                    <mxGeometry x="-780" y="700" width="240" height="20" as="geometry"/>
                </mxCell>
                <mxCell id="f1yFBkuRGMCA2Qp98boi-83" value="4" style="text;html=1;align=center;verticalAlign=middle;resizable=0;points=[];autosize=1;strokeColor=none;fontColor=#393C56;" parent="vGp0ROsTJqPObG-DRIV--1" vertex="1">
                    <mxGeometry x="-620" y="640" width="20" height="20" as="geometry"/>
                </mxCell>
                <mxCell id="px9_cjcwIooavNUM_0Uy-1" value="&lt;font color=&quot;#3333ff&quot;&gt;/*Create Crc Job to calculate crc*/&lt;/font&gt;" style="text;html=1;align=center;verticalAlign=middle;resizable=0;points=[];autosize=1;strokeColor=none;fontColor=#393C56;" parent="vGp0ROsTJqPObG-DRIV--1" vertex="1">
                    <mxGeometry x="-30" y="249" width="190" height="18" as="geometry"/>
                </mxCell>
                <mxCell id="CGjbf2BbhkaM5rvyOxDN-2" value="" style="ellipse;html=1;shape=endState;fillColor=#F2CC8F;strokeColor=#E07A5F;fontColor=#393C56;" parent="vGp0ROsTJqPObG-DRIV--1" vertex="1">
                    <mxGeometry x="219" y="740" width="22" height="22" as="geometry"/>
                </mxCell>
            </root>
        </mxGraphModel>
    </diagram>
    <diagram id="fNHubE-WcjDKd4kwqCwI" name="READ_BLOCK">
        <mxGraphModel dx="1651" dy="812" grid="0" gridSize="10" guides="1" tooltips="1" connect="1" arrows="1" fold="1" page="0" pageScale="1" pageWidth="850" pageHeight="1400" background="#F4F1DE" math="0" shadow="0">
            <root>
                <mxCell id="90FN7MphlEFh6G6nW8YK-0"/>
                <mxCell id="90FN7MphlEFh6G6nW8YK-1" parent="90FN7MphlEFh6G6nW8YK-0"/>
                <mxCell id="LAI6_K3tzgOqiSjlZvAN-0" value="READ_BLOCK:Job state machine" style="shape=umlFrame;whiteSpace=wrap;html=1;width=208;height=27;boundedLbl=1;verticalAlign=middle;align=left;spacingLeft=5;rounded=0;sketch=0;fontColor=#393C56;strokeColor=#E07A5F;fillColor=#F2CC8F;" parent="90FN7MphlEFh6G6nW8YK-1" vertex="1">
                    <mxGeometry x="-667" y="305" width="1270" height="702" as="geometry"/>
                </mxCell>
                <mxCell id="zg9eVKR-AnrgPSKH_nbA-0" value="" style="ellipse;html=1;shape=startState;fillColor=#F2CC8F;strokeColor=#E07A5F;rounded=0;sketch=0;fontColor=#393C56;" parent="90FN7MphlEFh6G6nW8YK-1" vertex="1">
                    <mxGeometry x="-352" y="425" width="30" height="30" as="geometry"/>
                </mxCell>
                <mxCell id="zg9eVKR-AnrgPSKH_nbA-1" value="" style="edgeStyle=orthogonalEdgeStyle;html=1;verticalAlign=bottom;endArrow=open;endSize=8;strokeColor=#E07A5F;fontColor=#393C56;fillColor=#F2CC8F;entryX=0;entryY=0.5;entryDx=0;entryDy=0;labelBackgroundColor=#F4F1DE;" parent="90FN7MphlEFh6G6nW8YK-1" source="zg9eVKR-AnrgPSKH_nbA-0" target="6puw9S2q3s8JEMfKB8G4-0" edge="1">
                    <mxGeometry relative="1" as="geometry">
                        <mxPoint x="-287" y="530" as="targetPoint"/>
                    </mxGeometry>
                </mxCell>
                <mxCell id="6puw9S2q3s8JEMfKB8G4-6" style="edgeStyle=orthogonalEdgeStyle;curved=0;rounded=1;sketch=0;orthogonalLoop=1;jettySize=auto;html=1;exitX=1;exitY=1;exitDx=0;exitDy=0;entryX=1;entryY=0;entryDx=0;entryDy=0;fontColor=#393C56;strokeColor=#E07A5F;fillColor=#F2CC8F;labelBackgroundColor=#F4F1DE;" parent="90FN7MphlEFh6G6nW8YK-1" source="6puw9S2q3s8JEMfKB8G4-0" target="6puw9S2q3s8JEMfKB8G4-5" edge="1">
                    <mxGeometry relative="1" as="geometry">
                        <Array as="points">
                            <mxPoint x="368" y="460"/>
                        </Array>
                    </mxGeometry>
                </mxCell>
                <mxCell id="Q03BPk0bftiIh_6ol_gb-4" style="edgeStyle=orthogonalEdgeStyle;curved=0;rounded=1;sketch=0;orthogonalLoop=1;jettySize=auto;html=1;exitX=0.25;exitY=1;exitDx=0;exitDy=0;entryX=0.5;entryY=0;entryDx=0;entryDy=0;fontColor=#393C56;strokeColor=#E07A5F;fillColor=#F2CC8F;labelBackgroundColor=#F4F1DE;" parent="90FN7MphlEFh6G6nW8YK-1" source="6puw9S2q3s8JEMfKB8G4-0" target="Q03BPk0bftiIh_6ol_gb-3" edge="1">
                    <mxGeometry relative="1" as="geometry"/>
                </mxCell>
                <mxCell id="Q03BPk0bftiIh_6ol_gb-37" style="edgeStyle=orthogonalEdgeStyle;curved=0;rounded=1;sketch=0;orthogonalLoop=1;jettySize=auto;html=1;exitX=1;exitY=0;exitDx=0;exitDy=0;entryX=1;entryY=0.5;entryDx=0;entryDy=0;fontColor=#393C56;strokeColor=#E07A5F;fillColor=#F2CC8F;" parent="90FN7MphlEFh6G6nW8YK-1" source="6puw9S2q3s8JEMfKB8G4-0" target="Q03BPk0bftiIh_6ol_gb-0" edge="1">
                    <mxGeometry relative="1" as="geometry">
                        <Array as="points">
                            <mxPoint x="493" y="420"/>
                            <mxPoint x="493" y="840"/>
                        </Array>
                    </mxGeometry>
                </mxCell>
                <mxCell id="6puw9S2q3s8JEMfKB8G4-0" value="READ_READ_DATA" style="html=1;align=center;verticalAlign=middle;rounded=1;absoluteArcSize=1;arcSize=10;dashed=0;sketch=0;fontColor=#393C56;strokeColor=#E07A5F;fillColor=#F2CC8F;" parent="90FN7MphlEFh6G6nW8YK-1" vertex="1">
                    <mxGeometry x="-132" y="420" width="140" height="40" as="geometry"/>
                </mxCell>
                <mxCell id="6puw9S2q3s8JEMfKB8G4-1" value="{NvM_ActReadNvBlock();}" style="text;html=1;align=center;verticalAlign=middle;resizable=0;points=[];autosize=1;strokeColor=none;fontColor=#393C56;" parent="90FN7MphlEFh6G6nW8YK-1" vertex="1">
                    <mxGeometry x="-312" y="420" width="160" height="20" as="geometry"/>
                </mxCell>
                <mxCell id="6puw9S2q3s8JEMfKB8G4-2" style="edgeStyle=orthogonalEdgeStyle;curved=0;rounded=1;sketch=0;orthogonalLoop=1;jettySize=auto;html=1;exitX=0.75;exitY=0;exitDx=0;exitDy=0;entryX=0.25;entryY=0;entryDx=0;entryDy=0;fontColor=#393C56;strokeColor=#E07A5F;fillColor=#F2CC8F;labelBackgroundColor=#F4F1DE;" parent="90FN7MphlEFh6G6nW8YK-1" source="6puw9S2q3s8JEMfKB8G4-0" target="6puw9S2q3s8JEMfKB8G4-0" edge="1">
                    <mxGeometry relative="1" as="geometry">
                        <Array as="points">
                            <mxPoint x="-27" y="400"/>
                            <mxPoint x="-97" y="400"/>
                        </Array>
                    </mxGeometry>
                </mxCell>
                <mxCell id="6puw9S2q3s8JEMfKB8G4-3" value="&lt;div&gt;[NvM_QryNvBusy()&amp;amp;&amp;amp;NvM_QryTrue()]/&lt;/div&gt;&lt;div&gt;{NvM_ActWait();NvM_ActNop();}&lt;/div&gt;" style="text;html=1;align=center;verticalAlign=middle;resizable=0;points=[];autosize=1;strokeColor=none;fontColor=#393C56;" parent="90FN7MphlEFh6G6nW8YK-1" vertex="1">
                    <mxGeometry x="-172" y="370" width="220" height="30" as="geometry"/>
                </mxCell>
                <mxCell id="6puw9S2q3s8JEMfKB8G4-4" value="1" style="text;html=1;align=center;verticalAlign=middle;resizable=0;points=[];autosize=1;strokeColor=none;fontColor=#393C56;" parent="90FN7MphlEFh6G6nW8YK-1" vertex="1">
                    <mxGeometry x="-32" y="400" width="20" height="20" as="geometry"/>
                </mxCell>
                <mxCell id="Q03BPk0bftiIh_6ol_gb-14" style="edgeStyle=orthogonalEdgeStyle;curved=0;rounded=1;sketch=0;orthogonalLoop=1;jettySize=auto;html=1;exitX=0.5;exitY=1;exitDx=0;exitDy=0;entryX=1;entryY=0;entryDx=0;entryDy=0;fontColor=#393C56;strokeColor=#E07A5F;fillColor=#F2CC8F;labelBackgroundColor=#F4F1DE;" parent="90FN7MphlEFh6G6nW8YK-1" source="6puw9S2q3s8JEMfKB8G4-5" target="Q03BPk0bftiIh_6ol_gb-0" edge="1">
                    <mxGeometry relative="1" as="geometry"/>
                </mxCell>
                <mxCell id="Q03BPk0bftiIh_6ol_gb-31" style="edgeStyle=orthogonalEdgeStyle;curved=0;rounded=1;sketch=0;orthogonalLoop=1;jettySize=auto;html=1;exitX=0;exitY=0.5;exitDx=0;exitDy=0;entryX=1;entryY=0.5;entryDx=0;entryDy=0;fontColor=#393C56;strokeColor=#E07A5F;fillColor=#F2CC8F;labelBackgroundColor=#F4F1DE;" parent="90FN7MphlEFh6G6nW8YK-1" source="6puw9S2q3s8JEMfKB8G4-5" target="Q03BPk0bftiIh_6ol_gb-3" edge="1">
                    <mxGeometry relative="1" as="geometry"/>
                </mxCell>
                <mxCell id="6puw9S2q3s8JEMfKB8G4-5" value="READ_CMP_CRC" style="html=1;align=center;verticalAlign=middle;rounded=1;absoluteArcSize=1;arcSize=10;dashed=0;sketch=0;fontColor=#393C56;strokeColor=#E07A5F;fillColor=#F2CC8F;" parent="90FN7MphlEFh6G6nW8YK-1" vertex="1">
                    <mxGeometry x="228" y="575" width="140" height="40" as="geometry"/>
                </mxCell>
                <mxCell id="6puw9S2q3s8JEMfKB8G4-7" value="&lt;div&gt;[NvM_QryLastResultOk()&amp;amp;&amp;amp;NvM_QryCrcBusy()]/&lt;/div&gt;&lt;div&gt;{NvM_ActProcessCrcRead();NvM_ActWait();}&lt;/div&gt;" style="text;html=1;align=center;verticalAlign=middle;resizable=0;points=[];autosize=1;strokeColor=none;fontColor=#393C56;" parent="90FN7MphlEFh6G6nW8YK-1" vertex="1">
                    <mxGeometry x="43" y="430" width="280" height="30" as="geometry"/>
                </mxCell>
                <mxCell id="6puw9S2q3s8JEMfKB8G4-8" value="2" style="text;html=1;align=center;verticalAlign=middle;resizable=0;points=[];autosize=1;strokeColor=none;fontColor=#393C56;" parent="90FN7MphlEFh6G6nW8YK-1" vertex="1">
                    <mxGeometry x="8" y="440" width="20" height="20" as="geometry"/>
                </mxCell>
                <mxCell id="Q03BPk0bftiIh_6ol_gb-36" style="edgeStyle=orthogonalEdgeStyle;curved=0;rounded=1;sketch=0;orthogonalLoop=1;jettySize=auto;html=1;exitX=0.5;exitY=1;exitDx=0;exitDy=0;entryX=0.5;entryY=0;entryDx=0;entryDy=0;fontColor=#393C56;strokeColor=#E07A5F;fillColor=#F2CC8F;labelBackgroundColor=#F4F1DE;" parent="90FN7MphlEFh6G6nW8YK-1" source="Q03BPk0bftiIh_6ol_gb-0" target="Q03BPk0bftiIh_6ol_gb-35" edge="1">
                    <mxGeometry relative="1" as="geometry"/>
                </mxCell>
                <mxCell id="Q03BPk0bftiIh_6ol_gb-0" value="&lt;div style=&quot;text-align: left&quot;&gt;&lt;span&gt;FSM_FINISHED&lt;/span&gt;&lt;/div&gt;" style="html=1;align=center;verticalAlign=middle;rounded=1;absoluteArcSize=1;arcSize=10;dashed=0;sketch=0;fontColor=#393C56;strokeColor=#E07A5F;fillColor=#F2CC8F;" parent="90FN7MphlEFh6G6nW8YK-1" vertex="1">
                    <mxGeometry x="-132" y="820" width="140" height="40" as="geometry"/>
                </mxCell>
                <mxCell id="Q03BPk0bftiIh_6ol_gb-2" value="3" style="text;html=1;align=center;verticalAlign=middle;resizable=0;points=[];autosize=1;strokeColor=none;fontColor=#393C56;" parent="90FN7MphlEFh6G6nW8YK-1" vertex="1">
                    <mxGeometry x="28" y="400" width="20" height="20" as="geometry"/>
                </mxCell>
                <mxCell id="Q03BPk0bftiIh_6ol_gb-17" style="edgeStyle=orthogonalEdgeStyle;curved=0;rounded=1;sketch=0;orthogonalLoop=1;jettySize=auto;html=1;exitX=0.25;exitY=0;exitDx=0;exitDy=0;entryX=0;entryY=1;entryDx=0;entryDy=0;fontColor=#393C56;strokeColor=#E07A5F;fillColor=#F2CC8F;labelBackgroundColor=#F4F1DE;" parent="90FN7MphlEFh6G6nW8YK-1" source="Q03BPk0bftiIh_6ol_gb-3" target="6puw9S2q3s8JEMfKB8G4-0" edge="1">
                    <mxGeometry relative="1" as="geometry">
                        <Array as="points">
                            <mxPoint x="-297" y="500"/>
                            <mxPoint x="-132" y="500"/>
                        </Array>
                    </mxGeometry>
                </mxCell>
                <mxCell id="Q03BPk0bftiIh_6ol_gb-21" style="edgeStyle=orthogonalEdgeStyle;curved=0;rounded=1;sketch=0;orthogonalLoop=1;jettySize=auto;html=1;exitX=0.5;exitY=1;exitDx=0;exitDy=0;entryX=0.5;entryY=0;entryDx=0;entryDy=0;fontColor=#393C56;strokeColor=#E07A5F;fillColor=#F2CC8F;labelBackgroundColor=#F4F1DE;" parent="90FN7MphlEFh6G6nW8YK-1" source="Q03BPk0bftiIh_6ol_gb-3" target="Q03BPk0bftiIh_6ol_gb-20" edge="1">
                    <mxGeometry relative="1" as="geometry">
                        <Array as="points">
                            <mxPoint x="-262" y="690"/>
                            <mxPoint x="-262" y="690"/>
                        </Array>
                    </mxGeometry>
                </mxCell>
                <mxCell id="Q03BPk0bftiIh_6ol_gb-3" value="&lt;div style=&quot;text-align: left&quot;&gt;READ_IMPL_RECOV&lt;br&gt;&lt;/div&gt;" style="html=1;align=center;verticalAlign=middle;rounded=1;absoluteArcSize=1;arcSize=10;dashed=0;sketch=0;fontColor=#393C56;strokeColor=#E07A5F;fillColor=#F2CC8F;" parent="90FN7MphlEFh6G6nW8YK-1" vertex="1">
                    <mxGeometry x="-332" y="575" width="140" height="40" as="geometry"/>
                </mxCell>
                <mxCell id="Q03BPk0bftiIh_6ol_gb-5" value="4" style="text;html=1;align=center;verticalAlign=middle;resizable=0;points=[];autosize=1;strokeColor=none;fontColor=#393C56;" parent="90FN7MphlEFh6G6nW8YK-1" vertex="1">
                    <mxGeometry x="-114" y="460" width="20" height="20" as="geometry"/>
                </mxCell>
                <mxCell id="Q03BPk0bftiIh_6ol_gb-6" value="&lt;div&gt;[NvM_QryLastResultOk()&amp;amp;&amp;amp;NvM_QryTrue()]/&lt;/div&gt;&lt;div&gt;{NvM_ActValidateRam();NvM_ActFinishReadBlock();}&lt;/div&gt;" style="text;html=1;align=center;verticalAlign=middle;resizable=0;points=[];autosize=1;strokeColor=none;fontColor=#393C56;" parent="90FN7MphlEFh6G6nW8YK-1" vertex="1">
                    <mxGeometry x="93" y="380" width="300" height="30" as="geometry"/>
                </mxCell>
                <mxCell id="Q03BPk0bftiIh_6ol_gb-8" style="edgeStyle=orthogonalEdgeStyle;curved=0;rounded=1;sketch=0;orthogonalLoop=1;jettySize=auto;html=1;entryX=0.25;entryY=0;entryDx=0;entryDy=0;fontColor=#393C56;strokeColor=#E07A5F;fillColor=#F2CC8F;exitX=0.821;exitY=-0.05;exitDx=0;exitDy=0;exitPerimeter=0;labelBackgroundColor=#F4F1DE;" parent="90FN7MphlEFh6G6nW8YK-1" source="6puw9S2q3s8JEMfKB8G4-5" target="6puw9S2q3s8JEMfKB8G4-5" edge="1">
                    <mxGeometry relative="1" as="geometry">
                        <mxPoint x="340" y="520" as="sourcePoint"/>
                        <mxPoint x="218" y="520" as="targetPoint"/>
                        <Array as="points">
                            <mxPoint x="343" y="540"/>
                            <mxPoint x="263" y="540"/>
                        </Array>
                    </mxGeometry>
                </mxCell>
                <mxCell id="Q03BPk0bftiIh_6ol_gb-9" value="&lt;div&gt;[NvM_QryCrcBusy()&amp;amp;&amp;amp;NvM_QryTrue()]/&lt;/div&gt;&lt;div&gt;{NvM_ActProcessCrcRead();NvM_ActWait();}&lt;/div&gt;" style="text;html=1;align=center;verticalAlign=middle;resizable=0;points=[];autosize=1;strokeColor=none;fontColor=#393C56;" parent="90FN7MphlEFh6G6nW8YK-1" vertex="1">
                    <mxGeometry x="105" y="507" width="252" height="32" as="geometry"/>
                </mxCell>
                <mxCell id="Q03BPk0bftiIh_6ol_gb-10" value="1" style="text;html=1;align=center;verticalAlign=middle;resizable=0;points=[];autosize=1;strokeColor=none;fontColor=#393C56;" parent="90FN7MphlEFh6G6nW8YK-1" vertex="1">
                    <mxGeometry x="328" y="550" width="20" height="20" as="geometry"/>
                </mxCell>
                <mxCell id="Q03BPk0bftiIh_6ol_gb-12" value="&lt;div&gt;[NvM_QryCrcMatch()&amp;amp;&amp;amp;NvM_QryTrue()]/&lt;/div&gt;&lt;div&gt;{NvM_ActValidateRam();NvM_ActFinishReadBlock();}&lt;/div&gt;" style="text;html=1;align=center;verticalAlign=middle;resizable=0;points=[];autosize=1;strokeColor=none;fontColor=#393C56;" parent="90FN7MphlEFh6G6nW8YK-1" vertex="1">
                    <mxGeometry x="3" y="685" width="300" height="30" as="geometry"/>
                </mxCell>
                <mxCell id="Q03BPk0bftiIh_6ol_gb-13" value="2" style="text;html=1;align=center;verticalAlign=middle;resizable=0;points=[];autosize=1;strokeColor=none;fontColor=#393C56;" parent="90FN7MphlEFh6G6nW8YK-1" vertex="1">
                    <mxGeometry x="268" y="620" width="20" height="20" as="geometry"/>
                </mxCell>
                <mxCell id="Q03BPk0bftiIh_6ol_gb-18" value="&lt;div&gt;&lt;font color=&quot;#3333ff&quot;&gt;/*switch to the second block*/&lt;/font&gt;&lt;/div&gt;&lt;div&gt;[NvM_QryRedundantBlock()&amp;amp;&amp;amp;NvM_QryTrue()]/&lt;/div&gt;&lt;div&gt;{NvM_ActSetupRedundant();NvM_ActReadNvBlock();}&lt;/div&gt;" style="text;html=1;align=center;verticalAlign=middle;resizable=0;points=[];autosize=1;strokeColor=none;fontColor=#393C56;" parent="90FN7MphlEFh6G6nW8YK-1" vertex="1">
                    <mxGeometry x="-437" y="455" width="301" height="46" as="geometry"/>
                </mxCell>
                <mxCell id="Q03BPk0bftiIh_6ol_gb-19" value="1" style="text;html=1;align=center;verticalAlign=middle;resizable=0;points=[];autosize=1;strokeColor=none;fontColor=#393C56;" parent="90FN7MphlEFh6G6nW8YK-1" vertex="1">
                    <mxGeometry x="-322" y="550" width="20" height="20" as="geometry"/>
                </mxCell>
                <mxCell id="Q03BPk0bftiIh_6ol_gb-24" style="edgeStyle=orthogonalEdgeStyle;curved=0;rounded=1;sketch=0;orthogonalLoop=1;jettySize=auto;html=1;exitX=0.75;exitY=1;exitDx=0;exitDy=0;entryX=0.25;entryY=0;entryDx=0;entryDy=0;fontColor=#393C56;strokeColor=#E07A5F;fillColor=#F2CC8F;labelBackgroundColor=#F4F1DE;" parent="90FN7MphlEFh6G6nW8YK-1" source="Q03BPk0bftiIh_6ol_gb-20" target="Q03BPk0bftiIh_6ol_gb-0" edge="1">
                    <mxGeometry relative="1" as="geometry">
                        <Array as="points">
                            <mxPoint x="-227" y="800"/>
                            <mxPoint x="-97" y="800"/>
                        </Array>
                    </mxGeometry>
                </mxCell>
                <mxCell id="Q03BPk0bftiIh_6ol_gb-20" value="&lt;div style=&quot;text-align: left&quot;&gt;READ_LOAD_ROM&lt;br&gt;&lt;/div&gt;" style="html=1;align=center;verticalAlign=middle;rounded=1;absoluteArcSize=1;arcSize=10;dashed=0;sketch=0;fontColor=#393C56;strokeColor=#E07A5F;fillColor=#F2CC8F;" parent="90FN7MphlEFh6G6nW8YK-1" vertex="1">
                    <mxGeometry x="-332" y="700" width="140" height="40" as="geometry"/>
                </mxCell>
                <mxCell id="Q03BPk0bftiIh_6ol_gb-22" value="2" style="text;html=1;align=center;verticalAlign=middle;resizable=0;points=[];autosize=1;strokeColor=none;fontColor=#393C56;" parent="90FN7MphlEFh6G6nW8YK-1" vertex="1">
                    <mxGeometry x="-282" y="620" width="20" height="20" as="geometry"/>
                </mxCell>
                <mxCell id="Q03BPk0bftiIh_6ol_gb-23" value="&lt;div&gt;[NvM_QryTrue()&amp;amp;&amp;amp;NvM_QryTrue()]/&lt;/div&gt;&lt;div&gt;{NvM_ActInitRestoreBlockDefaults();NvM_ActNop();}&lt;/div&gt;" style="text;html=1;align=center;verticalAlign=middle;resizable=0;points=[];autosize=1;strokeColor=none;fontColor=#393C56;" parent="90FN7MphlEFh6G6nW8YK-1" vertex="1">
                    <mxGeometry x="-352" y="640" width="300" height="30" as="geometry"/>
                </mxCell>
                <mxCell id="Q03BPk0bftiIh_6ol_gb-25" value="&lt;div&gt;[NvM_QryTrue()&amp;amp;&amp;amp;NvM_QryTrue()]/&lt;/div&gt;&lt;div&gt;{NvM_ActFinishRestoreRomDefaults();NvM_ActFinishReadBlock();}&lt;/div&gt;" style="text;html=1;align=center;verticalAlign=middle;resizable=0;points=[];autosize=1;strokeColor=none;fontColor=#393C56;" parent="90FN7MphlEFh6G6nW8YK-1" vertex="1">
                    <mxGeometry x="-372" y="770" width="380" height="30" as="geometry"/>
                </mxCell>
                <mxCell id="Q03BPk0bftiIh_6ol_gb-27" style="edgeStyle=orthogonalEdgeStyle;curved=0;rounded=1;sketch=0;orthogonalLoop=1;jettySize=auto;html=1;exitX=0;exitY=0.25;exitDx=0;exitDy=0;entryX=0.193;entryY=1.025;entryDx=0;entryDy=0;entryPerimeter=0;fontColor=#393C56;strokeColor=#E07A5F;fillColor=#F2CC8F;labelBackgroundColor=#F4F1DE;" parent="90FN7MphlEFh6G6nW8YK-1" source="Q03BPk0bftiIh_6ol_gb-20" target="Q03BPk0bftiIh_6ol_gb-20" edge="1">
                    <mxGeometry relative="1" as="geometry">
                        <Array as="points">
                            <mxPoint x="-492" y="710"/>
                            <mxPoint x="-492" y="760"/>
                            <mxPoint x="-305" y="760"/>
                        </Array>
                    </mxGeometry>
                </mxCell>
                <mxCell id="Q03BPk0bftiIh_6ol_gb-28" value="&lt;div&gt;&lt;/div&gt;&lt;br&gt;&lt;div&gt;[NvM_QryCrcBusy()&amp;amp;&amp;amp;NvM_QryTrue()]/&lt;/div&gt;&lt;div&gt;{NvM_ActRestoreRomDefaults();NvM_ActNop();}&lt;/div&gt;" style="text;html=1;align=center;verticalAlign=middle;resizable=0;points=[];autosize=1;strokeColor=none;fontColor=#393C56;" parent="90FN7MphlEFh6G6nW8YK-1" vertex="1">
                    <mxGeometry x="-628" y="661" width="271" height="46" as="geometry"/>
                </mxCell>
                <mxCell id="Q03BPk0bftiIh_6ol_gb-29" value="1" style="text;html=1;align=center;verticalAlign=middle;resizable=0;points=[];autosize=1;strokeColor=none;fontColor=#393C56;" parent="90FN7MphlEFh6G6nW8YK-1" vertex="1">
                    <mxGeometry x="-352" y="690" width="20" height="20" as="geometry"/>
                </mxCell>
                <mxCell id="Q03BPk0bftiIh_6ol_gb-30" value="2" style="text;html=1;align=center;verticalAlign=middle;resizable=0;points=[];autosize=1;strokeColor=none;fontColor=#393C56;" parent="90FN7MphlEFh6G6nW8YK-1" vertex="1">
                    <mxGeometry x="-232" y="740" width="20" height="20" as="geometry"/>
                </mxCell>
                <mxCell id="Q03BPk0bftiIh_6ol_gb-32" value="3" style="text;html=1;align=center;verticalAlign=middle;resizable=0;points=[];autosize=1;strokeColor=none;fontColor=#393C56;" parent="90FN7MphlEFh6G6nW8YK-1" vertex="1">
                    <mxGeometry x="208" y="575" width="20" height="20" as="geometry"/>
                </mxCell>
                <mxCell id="Q03BPk0bftiIh_6ol_gb-34" value="&lt;div&gt;[NvM_QryTrue()&amp;amp;&amp;amp;NvM_QryTrue()]/&lt;/div&gt;&lt;div&gt;{NvM_ActSetReqIntegrityFailed();NvM_ActNop();}&lt;/div&gt;" style="text;html=1;align=center;verticalAlign=middle;resizable=0;points=[];autosize=1;strokeColor=none;fontColor=#393C56;" parent="90FN7MphlEFh6G6nW8YK-1" vertex="1">
                    <mxGeometry x="-90" y="563" width="280" height="30" as="geometry"/>
                </mxCell>
                <mxCell id="Q03BPk0bftiIh_6ol_gb-35" value="" style="ellipse;html=1;shape=endState;fillColor=#F2CC8F;strokeColor=#E07A5F;rounded=0;sketch=0;fontColor=#393C56;verticalAlign=middle;" parent="90FN7MphlEFh6G6nW8YK-1" vertex="1">
                    <mxGeometry x="-77" y="930" width="30" height="30" as="geometry"/>
                </mxCell>
                <mxCell id="gCngDFps6-lzs9Umnn1t-0" value="&lt;div&gt;&lt;div style=&quot;text-align: center&quot;&gt;&lt;span&gt;NvM_ActRestoreRomDefaults Create a crc job to calc crc of default data&lt;/span&gt;&lt;/div&gt;&lt;/div&gt;" style="shape=note2;boundedLbl=1;whiteSpace=wrap;html=1;size=25;verticalAlign=top;align=left;rounded=0;sketch=0;strokeColor=#E07A5F;fillColor=#F2CC8F;fontColor=#3333FF;" parent="90FN7MphlEFh6G6nW8YK-1" vertex="1">
                    <mxGeometry x="-660" y="610" width="303" height="60" as="geometry"/>
                </mxCell>
            </root>
        </mxGraphModel>
    </diagram>
    <diagram id="vVfDKOfRs0isftWwt6sy" name="RESTORE_DEFAULTS">
        <mxGraphModel dx="1273" dy="2212" grid="0" gridSize="10" guides="1" tooltips="1" connect="1" arrows="1" fold="1" page="1" pageScale="1" pageWidth="850" pageHeight="1400" background="#F4F1DE" math="0" shadow="0">
            <root>
                <mxCell id="9lv2ch4IpPVMNxCxcYWq-0"/>
                <mxCell id="9lv2ch4IpPVMNxCxcYWq-1" parent="9lv2ch4IpPVMNxCxcYWq-0"/>
                <mxCell id="6slyPmTDTrynxpdzDujU-6" value="&lt;font color=&quot;#393c56&quot;&gt;RESTORE_DEFAULTS:Job state machine&lt;/font&gt;" style="shape=umlFrame;whiteSpace=wrap;html=1;width=243;height=25;boundedLbl=1;verticalAlign=middle;align=left;spacingLeft=5;rounded=0;sketch=0;fontColor=#3333FF;strokeColor=#E07A5F;fillColor=#F2CC8F;labelBackgroundColor=none;" parent="9lv2ch4IpPVMNxCxcYWq-1" vertex="1">
                    <mxGeometry x="110" y="-1140" width="650" height="390" as="geometry"/>
                </mxCell>
                <mxCell id="PCn9PFgxn8Az6CWg2yac-2" style="edgeStyle=orthogonalEdgeStyle;curved=0;rounded=1;sketch=0;orthogonalLoop=1;jettySize=auto;html=1;exitX=0.5;exitY=1;exitDx=0;exitDy=0;entryX=0.5;entryY=0;entryDx=0;entryDy=0;fontColor=#393C56;strokeColor=#E07A5F;fillColor=#F2CC8F;labelBackgroundColor=#F4F1DE;" parent="9lv2ch4IpPVMNxCxcYWq-1" source="oef1TnuEfeCOwlNsfI17-0" target="PCn9PFgxn8Az6CWg2yac-1" edge="1">
                    <mxGeometry relative="1" as="geometry"/>
                </mxCell>
                <mxCell id="oef1TnuEfeCOwlNsfI17-0" value="RESTORE_LOAD_ROM" style="html=1;align=center;verticalAlign=middle;rounded=1;absoluteArcSize=1;arcSize=10;dashed=0;fillColor=#F2CC8F;strokeColor=#E07A5F;fontColor=#393C56;" parent="9lv2ch4IpPVMNxCxcYWq-1" vertex="1">
                    <mxGeometry x="330" y="-1050" width="180" height="40" as="geometry"/>
                </mxCell>
                <mxCell id="Gz0tsgBmHStmu53_Kyfk-0" style="edgeStyle=orthogonalEdgeStyle;curved=0;rounded=1;sketch=0;orthogonalLoop=1;jettySize=auto;html=1;exitX=0.75;exitY=0;exitDx=0;exitDy=0;entryX=0.25;entryY=0;entryDx=0;entryDy=0;fontColor=#393C56;strokeColor=#E07A5F;fillColor=#F2CC8F;labelBackgroundColor=#F4F1DE;" parent="9lv2ch4IpPVMNxCxcYWq-1" source="oef1TnuEfeCOwlNsfI17-0" target="oef1TnuEfeCOwlNsfI17-0" edge="1">
                    <mxGeometry relative="1" as="geometry">
                        <Array as="points">
                            <mxPoint x="465" y="-1070"/>
                            <mxPoint x="375" y="-1070"/>
                        </Array>
                    </mxGeometry>
                </mxCell>
                <mxCell id="Gz0tsgBmHStmu53_Kyfk-1" value="&lt;div&gt;&lt;br&gt;&lt;/div&gt;&lt;div&gt;[NvM_QryCrcBusy()&amp;amp;&amp;amp;NvM_QryTrue()]/&lt;/div&gt;&lt;div&gt;{NvM_ActRestoreRomDefaults();NvM_ActNop();}&lt;/div&gt;" style="text;html=1;align=center;verticalAlign=middle;resizable=0;points=[];autosize=1;strokeColor=none;fontColor=#393C56;" parent="9lv2ch4IpPVMNxCxcYWq-1" vertex="1">
                    <mxGeometry x="260" y="-1115" width="280" height="50" as="geometry"/>
                </mxCell>
                <mxCell id="Gz0tsgBmHStmu53_Kyfk-2" value="" style="ellipse;html=1;shape=startState;fillColor=#F2CC8F;strokeColor=#E07A5F;rounded=0;labelBackgroundColor=none;sketch=0;fontColor=#393C56;align=left;verticalAlign=middle;" parent="9lv2ch4IpPVMNxCxcYWq-1" vertex="1">
                    <mxGeometry x="140" y="-1045" width="30" height="30" as="geometry"/>
                </mxCell>
                <mxCell id="Gz0tsgBmHStmu53_Kyfk-3" value="" style="edgeStyle=orthogonalEdgeStyle;html=1;verticalAlign=bottom;endArrow=open;endSize=8;strokeColor=#E07A5F;fontColor=#393C56;fillColor=#F2CC8F;entryX=0;entryY=0.5;entryDx=0;entryDy=0;labelBackgroundColor=#F4F1DE;" parent="9lv2ch4IpPVMNxCxcYWq-1" source="Gz0tsgBmHStmu53_Kyfk-2" target="oef1TnuEfeCOwlNsfI17-0" edge="1">
                    <mxGeometry relative="1" as="geometry">
                        <mxPoint x="425" y="-760" as="targetPoint"/>
                    </mxGeometry>
                </mxCell>
                <mxCell id="wQ8n6rlaSDCeGTlxowBD-1" style="edgeStyle=orthogonalEdgeStyle;curved=0;rounded=1;sketch=0;orthogonalLoop=1;jettySize=auto;html=1;exitX=0.5;exitY=1;exitDx=0;exitDy=0;entryX=0.5;entryY=0;entryDx=0;entryDy=0;fontColor=#393C56;strokeColor=#E07A5F;fillColor=#F2CC8F;" parent="9lv2ch4IpPVMNxCxcYWq-1" source="PCn9PFgxn8Az6CWg2yac-1" target="wQ8n6rlaSDCeGTlxowBD-0" edge="1">
                    <mxGeometry relative="1" as="geometry"/>
                </mxCell>
                <mxCell id="PCn9PFgxn8Az6CWg2yac-1" value="FSM_FINISHED" style="html=1;align=center;verticalAlign=middle;rounded=1;absoluteArcSize=1;arcSize=10;dashed=0;fillColor=#F2CC8F;strokeColor=#E07A5F;fontColor=#393C56;" parent="9lv2ch4IpPVMNxCxcYWq-1" vertex="1">
                    <mxGeometry x="330" y="-900" width="180" height="40" as="geometry"/>
                </mxCell>
                <mxCell id="wQ8n6rlaSDCeGTlxowBD-0" value="" style="ellipse;html=1;shape=endState;fillColor=#F2CC8F;strokeColor=#E07A5F;rounded=0;sketch=0;fontColor=#393C56;" parent="9lv2ch4IpPVMNxCxcYWq-1" vertex="1">
                    <mxGeometry x="405" y="-790" width="30" height="30" as="geometry"/>
                </mxCell>
                <mxCell id="6slyPmTDTrynxpdzDujU-0" value="{NvM_ActFinishRestoreRomDefaults();NvM_ActNop();}" style="text;html=1;align=center;verticalAlign=middle;resizable=0;points=[];autosize=1;strokeColor=none;fontColor=#393C56;" parent="9lv2ch4IpPVMNxCxcYWq-1" vertex="1">
                    <mxGeometry x="420" y="-970" width="310" height="20" as="geometry"/>
                </mxCell>
                <mxCell id="6slyPmTDTrynxpdzDujU-1" value="1" style="text;html=1;align=center;verticalAlign=middle;resizable=0;points=[];autosize=1;strokeColor=none;fontColor=#393C56;" parent="9lv2ch4IpPVMNxCxcYWq-1" vertex="1">
                    <mxGeometry x="470" y="-1070" width="20" height="20" as="geometry"/>
                </mxCell>
                <mxCell id="6slyPmTDTrynxpdzDujU-2" value="2" style="text;html=1;align=center;verticalAlign=middle;resizable=0;points=[];autosize=1;strokeColor=none;fontColor=#393C56;" parent="9lv2ch4IpPVMNxCxcYWq-1" vertex="1">
                    <mxGeometry x="420" y="-1010" width="20" height="20" as="geometry"/>
                </mxCell>
                <mxCell id="6slyPmTDTrynxpdzDujU-5" value="Comment:&lt;br&gt;Service to restore the default data to its corresponding RAM block" style="shape=note2;boundedLbl=1;whiteSpace=wrap;html=1;size=25;verticalAlign=top;align=left;rounded=0;sketch=0;strokeColor=#E07A5F;fillColor=#F2CC8F;fontColor=#3333FF;" parent="9lv2ch4IpPVMNxCxcYWq-1" vertex="1">
                    <mxGeometry x="110" y="-825" width="220" height="75" as="geometry"/>
                </mxCell>
            </root>
        </mxGraphModel>
    </diagram>
    <diagram id="uHFDeTI3uUuPEebM1bWE" name="INVALIDATE_NV_BLOCK">
        <mxGraphModel dx="1273" dy="2212" grid="0" gridSize="10" guides="1" tooltips="1" connect="1" arrows="1" fold="1" page="1" pageScale="1" pageWidth="850" pageHeight="1400" background="#F4F1DE" math="0" shadow="0">
            <root>
                <mxCell id="Jvj902lj19mNp2MHefii-0"/>
                <mxCell id="Jvj902lj19mNp2MHefii-1" parent="Jvj902lj19mNp2MHefii-0"/>
                <mxCell id="T9Uz6MOs5ju3lBAvWbrb-16" value="INVALIDATE_NV_BLOCK:Job state machine" style="shape=umlFrame;whiteSpace=wrap;html=1;width=263;height=20;boundedLbl=1;verticalAlign=middle;align=left;spacingLeft=5;rounded=0;sketch=0;fontColor=#393C56;strokeColor=#E07A5F;fillColor=#F2CC8F;" parent="Jvj902lj19mNp2MHefii-1" vertex="1">
                    <mxGeometry x="110" y="-1360" width="700" height="370" as="geometry"/>
                </mxCell>
                <mxCell id="T9Uz6MOs5ju3lBAvWbrb-9" style="edgeStyle=orthogonalEdgeStyle;curved=0;rounded=1;sketch=0;orthogonalLoop=1;jettySize=auto;html=1;exitX=0.5;exitY=1;exitDx=0;exitDy=0;fontColor=#393C56;strokeColor=#E07A5F;fillColor=#F2CC8F;labelBackgroundColor=#F4F1DE;" parent="Jvj902lj19mNp2MHefii-1" source="blkoALbbap1kDH6Z_a-8-0" target="T9Uz6MOs5ju3lBAvWbrb-0" edge="1">
                    <mxGeometry relative="1" as="geometry"/>
                </mxCell>
                <mxCell id="blkoALbbap1kDH6Z_a-8-0" value="INVALIDATING_BLOCK" style="html=1;align=center;verticalAlign=middle;rounded=1;absoluteArcSize=1;arcSize=10;dashed=0;fillColor=#F2CC8F;strokeColor=#E07A5F;fontColor=#393C56;" parent="Jvj902lj19mNp2MHefii-1" vertex="1">
                    <mxGeometry x="300" y="-1270" width="180" height="40" as="geometry"/>
                </mxCell>
                <mxCell id="T9Uz6MOs5ju3lBAvWbrb-15" style="edgeStyle=orthogonalEdgeStyle;curved=0;rounded=1;sketch=0;orthogonalLoop=1;jettySize=auto;html=1;exitX=0.5;exitY=1;exitDx=0;exitDy=0;entryX=0.5;entryY=0;entryDx=0;entryDy=0;fontColor=#393C56;strokeColor=#E07A5F;fillColor=#F2CC8F;" parent="Jvj902lj19mNp2MHefii-1" source="T9Uz6MOs5ju3lBAvWbrb-0" target="T9Uz6MOs5ju3lBAvWbrb-14" edge="1">
                    <mxGeometry relative="1" as="geometry"/>
                </mxCell>
                <mxCell id="T9Uz6MOs5ju3lBAvWbrb-0" value="FSM_FINISHED" style="html=1;align=center;verticalAlign=middle;rounded=1;absoluteArcSize=1;arcSize=10;dashed=0;fillColor=#F2CC8F;strokeColor=#E07A5F;fontColor=#393C56;" parent="Jvj902lj19mNp2MHefii-1" vertex="1">
                    <mxGeometry x="300" y="-1140" width="180" height="40" as="geometry"/>
                </mxCell>
                <mxCell id="T9Uz6MOs5ju3lBAvWbrb-1" style="edgeStyle=orthogonalEdgeStyle;curved=0;rounded=1;sketch=0;orthogonalLoop=1;jettySize=auto;html=1;exitX=0.75;exitY=0;exitDx=0;exitDy=0;entryX=0.25;entryY=0;entryDx=0;entryDy=0;fontColor=#393C56;strokeColor=#E07A5F;fillColor=#F2CC8F;labelBackgroundColor=#F4F1DE;" parent="Jvj902lj19mNp2MHefii-1" source="blkoALbbap1kDH6Z_a-8-0" target="blkoALbbap1kDH6Z_a-8-0" edge="1">
                    <mxGeometry relative="1" as="geometry">
                        <Array as="points">
                            <mxPoint x="435" y="-1300"/>
                            <mxPoint x="345" y="-1300"/>
                        </Array>
                    </mxGeometry>
                </mxCell>
                <mxCell id="T9Uz6MOs5ju3lBAvWbrb-4" value="&lt;div&gt;[NvM_QryNvBusy()&amp;amp;&amp;amp;NvM_QryTrue()]/&lt;/div&gt;&lt;div&gt;{NvM_ActWait();NvM_ActNop();}&lt;/div&gt;" style="text;html=1;align=center;verticalAlign=middle;resizable=0;points=[];autosize=1;strokeColor=none;fontColor=#393C56;" parent="Jvj902lj19mNp2MHefii-1" vertex="1">
                    <mxGeometry x="260" y="-1330" width="220" height="30" as="geometry"/>
                </mxCell>
                <mxCell id="T9Uz6MOs5ju3lBAvWbrb-5" value="1" style="text;html=1;align=center;verticalAlign=middle;resizable=0;points=[];autosize=1;strokeColor=none;fontColor=#393C56;" parent="Jvj902lj19mNp2MHefii-1" vertex="1">
                    <mxGeometry x="430" y="-1290" width="20" height="20" as="geometry"/>
                </mxCell>
                <mxCell id="T9Uz6MOs5ju3lBAvWbrb-6" style="edgeStyle=orthogonalEdgeStyle;curved=0;rounded=1;sketch=0;orthogonalLoop=1;jettySize=auto;html=1;exitX=1;exitY=0.75;exitDx=0;exitDy=0;entryX=0.924;entryY=-0.037;entryDx=0;entryDy=0;entryPerimeter=0;fontColor=#393C56;strokeColor=#E07A5F;fillColor=#F2CC8F;labelBackgroundColor=#F4F1DE;" parent="Jvj902lj19mNp2MHefii-1" source="blkoALbbap1kDH6Z_a-8-0" target="blkoALbbap1kDH6Z_a-8-0" edge="1">
                    <mxGeometry relative="1" as="geometry">
                        <Array as="points">
                            <mxPoint x="710" y="-1240"/>
                            <mxPoint x="710" y="-1300"/>
                            <mxPoint x="466" y="-1300"/>
                        </Array>
                    </mxGeometry>
                </mxCell>
                <mxCell id="T9Uz6MOs5ju3lBAvWbrb-7" value="2" style="text;html=1;align=center;verticalAlign=middle;resizable=0;points=[];autosize=1;strokeColor=none;fontColor=#393C56;" parent="Jvj902lj19mNp2MHefii-1" vertex="1">
                    <mxGeometry x="480" y="-1260" width="20" height="20" as="geometry"/>
                </mxCell>
                <mxCell id="T9Uz6MOs5ju3lBAvWbrb-8" value="[NvM_QryLastResultOk()&amp;&amp;NvM_QryRedundantBlock()]/&#10;{NvM_ActSetupRedundant();NvM_ActInvalidateNvBlock();}" style="text;whiteSpace=wrap;html=1;fontColor=#393C56;" parent="Jvj902lj19mNp2MHefii-1" vertex="1">
                    <mxGeometry x="480" y="-1335" width="340" height="40" as="geometry"/>
                </mxCell>
                <mxCell id="T9Uz6MOs5ju3lBAvWbrb-10" value="&lt;div&gt;{NvM_ActUpdateNvState();NvM_ActFinishEraseBlock();}&lt;/div&gt;&lt;div&gt;&lt;br&gt;&lt;/div&gt;" style="text;html=1;align=center;verticalAlign=middle;resizable=0;points=[];autosize=1;strokeColor=none;fontColor=#393C56;" parent="Jvj902lj19mNp2MHefii-1" vertex="1">
                    <mxGeometry x="380" y="-1180" width="320" height="30" as="geometry"/>
                </mxCell>
                <mxCell id="T9Uz6MOs5ju3lBAvWbrb-11" value="3" style="text;html=1;align=center;verticalAlign=middle;resizable=0;points=[];autosize=1;strokeColor=none;fontColor=#393C56;" parent="Jvj902lj19mNp2MHefii-1" vertex="1">
                    <mxGeometry x="400" y="-1230" width="20" height="20" as="geometry"/>
                </mxCell>
                <mxCell id="T9Uz6MOs5ju3lBAvWbrb-12" value="" style="ellipse;html=1;shape=startState;fillColor=#F2CC8F;strokeColor=#E07A5F;rounded=0;sketch=0;fontColor=#393C56;" parent="Jvj902lj19mNp2MHefii-1" vertex="1">
                    <mxGeometry x="160" y="-1265" width="30" height="30" as="geometry"/>
                </mxCell>
                <mxCell id="T9Uz6MOs5ju3lBAvWbrb-13" value="" style="edgeStyle=orthogonalEdgeStyle;html=1;verticalAlign=bottom;endArrow=open;endSize=8;strokeColor=#E07A5F;fontColor=#393C56;fillColor=#F2CC8F;entryX=0;entryY=0.5;entryDx=0;entryDy=0;labelBackgroundColor=#F4F1DE;" parent="Jvj902lj19mNp2MHefii-1" source="T9Uz6MOs5ju3lBAvWbrb-12" target="blkoALbbap1kDH6Z_a-8-0" edge="1">
                    <mxGeometry relative="1" as="geometry">
                        <mxPoint x="175" y="-1180" as="targetPoint"/>
                    </mxGeometry>
                </mxCell>
                <mxCell id="T9Uz6MOs5ju3lBAvWbrb-14" value="" style="ellipse;html=1;shape=endState;fillColor=#F2CC8F;strokeColor=#E07A5F;rounded=0;sketch=0;fontColor=#393C56;" parent="Jvj902lj19mNp2MHefii-1" vertex="1">
                    <mxGeometry x="375" y="-1040" width="30" height="30" as="geometry"/>
                </mxCell>
            </root>
        </mxGraphModel>
    </diagram>
    <diagram id="niPBkHipDjeG8bAiyG4-" name="ERASE_BLOCK">
        <mxGraphModel dx="1273" dy="812" grid="0" gridSize="10" guides="1" tooltips="1" connect="1" arrows="1" fold="1" page="1" pageScale="1" pageWidth="850" pageHeight="1400" background="#F4F1DE" math="0" shadow="0">
            <root>
                <mxCell id="tfY7XlX49qjwbu2kcnLf-0"/>
                <mxCell id="tfY7XlX49qjwbu2kcnLf-1" parent="tfY7XlX49qjwbu2kcnLf-0"/>
                <mxCell id="ZrglLuMKnWigBc-_PF6O-0" value="ERASE_BLOCK:Job state machine" style="shape=umlFrame;whiteSpace=wrap;html=1;width=204;height=28;boundedLbl=1;verticalAlign=middle;align=left;spacingLeft=5;rounded=0;sketch=0;fontColor=#393C56;strokeColor=#E07A5F;fillColor=#F2CC8F;" parent="tfY7XlX49qjwbu2kcnLf-1" vertex="1">
                    <mxGeometry x="40" y="96" width="800" height="449" as="geometry"/>
                </mxCell>
                <mxCell id="KCpiFYw1Gcr9kPA8u7qk-8" style="edgeStyle=orthogonalEdgeStyle;curved=0;rounded=1;sketch=0;orthogonalLoop=1;jettySize=auto;html=1;exitX=1;exitY=0.75;exitDx=0;exitDy=0;fontColor=#393C56;strokeColor=#E07A5F;fillColor=#F2CC8F;entryX=1;entryY=0.25;entryDx=0;entryDy=0;" parent="tfY7XlX49qjwbu2kcnLf-1" source="KCpiFYw1Gcr9kPA8u7qk-0" target="KCpiFYw1Gcr9kPA8u7qk-0" edge="1">
                    <mxGeometry relative="1" as="geometry">
                        <mxPoint x="483" y="221" as="targetPoint"/>
                        <Array as="points">
                            <mxPoint x="787" y="238"/>
                            <mxPoint x="787" y="218"/>
                        </Array>
                    </mxGeometry>
                </mxCell>
                <mxCell id="_9U3ZuGp1eMXRU8hvnDK-2" style="edgeStyle=orthogonalEdgeStyle;curved=0;rounded=1;sketch=0;orthogonalLoop=1;jettySize=auto;html=1;exitX=0.5;exitY=1;exitDx=0;exitDy=0;entryX=0.5;entryY=0;entryDx=0;entryDy=0;fontColor=#393C56;strokeColor=#E07A5F;fillColor=#F2CC8F;" parent="tfY7XlX49qjwbu2kcnLf-1" source="KCpiFYw1Gcr9kPA8u7qk-0" target="_9U3ZuGp1eMXRU8hvnDK-0" edge="1">
                    <mxGeometry relative="1" as="geometry"/>
                </mxCell>
                <mxCell id="KCpiFYw1Gcr9kPA8u7qk-0" value="ERASE_ERASE_BLOCK" style="html=1;align=center;verticalAlign=middle;rounded=1;absoluteArcSize=1;arcSize=10;dashed=0;sketch=0;fontColor=#393C56;strokeColor=#E07A5F;fillColor=#F2CC8F;" parent="tfY7XlX49qjwbu2kcnLf-1" vertex="1">
                    <mxGeometry x="333" y="208" width="140" height="40" as="geometry"/>
                </mxCell>
                <mxCell id="KCpiFYw1Gcr9kPA8u7qk-1" value="" style="ellipse;html=1;shape=startState;fillColor=#F2CC8F;strokeColor=#E07A5F;rounded=0;sketch=0;fontColor=#393C56;verticalAlign=middle;" parent="tfY7XlX49qjwbu2kcnLf-1" vertex="1">
                    <mxGeometry x="106" y="213" width="30" height="30" as="geometry"/>
                </mxCell>
                <mxCell id="KCpiFYw1Gcr9kPA8u7qk-2" value="" style="edgeStyle=orthogonalEdgeStyle;html=1;verticalAlign=bottom;endArrow=open;endSize=8;strokeColor=#E07A5F;fontColor=#393C56;fillColor=#F2CC8F;entryX=0;entryY=0.5;entryDx=0;entryDy=0;labelBackgroundColor=#F4F1DE;" parent="tfY7XlX49qjwbu2kcnLf-1" source="KCpiFYw1Gcr9kPA8u7qk-1" target="KCpiFYw1Gcr9kPA8u7qk-0" edge="1">
                    <mxGeometry relative="1" as="geometry">
                        <mxPoint x="204" y="303" as="targetPoint"/>
                    </mxGeometry>
                </mxCell>
                <mxCell id="KCpiFYw1Gcr9kPA8u7qk-3" value="{NvM_ActEraseNvBlock();}" style="text;html=1;align=center;verticalAlign=middle;resizable=0;points=[];autosize=1;strokeColor=none;fontColor=#393C56;" parent="tfY7XlX49qjwbu2kcnLf-1" vertex="1">
                    <mxGeometry x="158" y="206" width="153" height="18" as="geometry"/>
                </mxCell>
                <mxCell id="KCpiFYw1Gcr9kPA8u7qk-5" style="edgeStyle=orthogonalEdgeStyle;curved=0;rounded=1;sketch=0;orthogonalLoop=1;jettySize=auto;html=1;exitX=0.75;exitY=0;exitDx=0;exitDy=0;entryX=0.25;entryY=0;entryDx=0;entryDy=0;fontColor=#393C56;strokeColor=#E07A5F;fillColor=#F2CC8F;" parent="tfY7XlX49qjwbu2kcnLf-1" source="KCpiFYw1Gcr9kPA8u7qk-0" target="KCpiFYw1Gcr9kPA8u7qk-0" edge="1">
                    <mxGeometry relative="1" as="geometry">
                        <Array as="points">
                            <mxPoint x="438" y="188"/>
                            <mxPoint x="368" y="188"/>
                        </Array>
                    </mxGeometry>
                </mxCell>
                <mxCell id="KCpiFYw1Gcr9kPA8u7qk-6" value="&lt;div&gt;[NvM_QryNvBusy()&amp;amp;&amp;amp;NvM_QryTrue()]/&lt;/div&gt;&lt;div&gt;{NvM_ActWait();NvM_ActNop();}&lt;/div&gt;" style="text;html=1;align=center;verticalAlign=middle;resizable=0;points=[];autosize=1;strokeColor=none;fontColor=#393C56;" parent="tfY7XlX49qjwbu2kcnLf-1" vertex="1">
                    <mxGeometry x="264" y="154" width="219" height="32" as="geometry"/>
                </mxCell>
                <mxCell id="KCpiFYw1Gcr9kPA8u7qk-7" value="1" style="text;html=1;align=center;verticalAlign=middle;resizable=0;points=[];autosize=1;strokeColor=none;fontColor=#393C56;" parent="tfY7XlX49qjwbu2kcnLf-1" vertex="1">
                    <mxGeometry x="438" y="190" width="17" height="18" as="geometry"/>
                </mxCell>
                <mxCell id="KCpiFYw1Gcr9kPA8u7qk-9" value="[NvM_QryLastResultOk()&amp;&amp;NvM_QryRedundantBlock()]/&#10;{NvM_ActSetupRedundant();NvM_ActEraseNvBlock();}" style="text;whiteSpace=wrap;html=1;fontColor=#393C56;" parent="tfY7XlX49qjwbu2kcnLf-1" vertex="1">
                    <mxGeometry x="483.004117647059" y="174.00058823529415" width="323" height="42" as="geometry"/>
                </mxCell>
                <mxCell id="KCpiFYw1Gcr9kPA8u7qk-10" value="2" style="text;html=1;align=center;verticalAlign=middle;resizable=0;points=[];autosize=1;strokeColor=none;fontColor=#393C56;" parent="tfY7XlX49qjwbu2kcnLf-1" vertex="1">
                    <mxGeometry x="479" y="224" width="17" height="18" as="geometry"/>
                </mxCell>
                <mxCell id="_9U3ZuGp1eMXRU8hvnDK-3" style="edgeStyle=orthogonalEdgeStyle;curved=0;rounded=1;sketch=0;orthogonalLoop=1;jettySize=auto;html=1;exitX=0.5;exitY=1;exitDx=0;exitDy=0;entryX=0.5;entryY=0;entryDx=0;entryDy=0;fontColor=#393C56;strokeColor=#E07A5F;fillColor=#F2CC8F;" parent="tfY7XlX49qjwbu2kcnLf-1" source="_9U3ZuGp1eMXRU8hvnDK-0" target="_9U3ZuGp1eMXRU8hvnDK-1" edge="1">
                    <mxGeometry relative="1" as="geometry"/>
                </mxCell>
                <mxCell id="_9U3ZuGp1eMXRU8hvnDK-0" value="&lt;div style=&quot;text-align: left&quot;&gt;&lt;span&gt;FSM_FINISHED&lt;/span&gt;&lt;/div&gt;" style="html=1;align=center;verticalAlign=middle;rounded=1;absoluteArcSize=1;arcSize=10;dashed=0;sketch=0;fontColor=#393C56;strokeColor=#E07A5F;fillColor=#F2CC8F;" parent="tfY7XlX49qjwbu2kcnLf-1" vertex="1">
                    <mxGeometry x="333" y="352" width="140" height="40" as="geometry"/>
                </mxCell>
                <mxCell id="_9U3ZuGp1eMXRU8hvnDK-1" value="" style="ellipse;html=1;shape=endState;fillColor=#F2CC8F;strokeColor=#E07A5F;fontColor=#393C56;" parent="tfY7XlX49qjwbu2kcnLf-1" vertex="1">
                    <mxGeometry x="392" y="492" width="22" height="22" as="geometry"/>
                </mxCell>
                <mxCell id="_9U3ZuGp1eMXRU8hvnDK-4" value="&lt;div&gt;{NvM_ActUpdateNvState();NvM_ActFinishEraseBlock();}&lt;/div&gt;&lt;div&gt;&lt;br&gt;&lt;/div&gt;" style="text;html=1;align=center;verticalAlign=middle;resizable=0;points=[];autosize=1;strokeColor=none;fontColor=#393C56;" parent="tfY7XlX49qjwbu2kcnLf-1" vertex="1">
                    <mxGeometry x="253" y="296" width="312" height="32" as="geometry"/>
                </mxCell>
            </root>
        </mxGraphModel>
    </diagram>
    <diagram id="m8WqdzkVWHsOAmldjY0e" name="WRITE_ALL">
        <mxGraphModel dx="1842" dy="955" grid="0" gridSize="10" guides="0" tooltips="1" connect="1" arrows="1" fold="1" page="1" pageScale="1" pageWidth="850" pageHeight="1400" background="#F4F1DE" math="0" shadow="0">
            <root>
                <mxCell id="jhzmH9sGURhkH7dmUOn7-0"/>
                <mxCell id="jhzmH9sGURhkH7dmUOn7-1" parent="jhzmH9sGURhkH7dmUOn7-0"/>
                <mxCell id="ILKrUHKVIKInBUIUbNHo-0" value="WRITE_ALL:Job state machine" style="shape=umlFrame;whiteSpace=wrap;html=1;width=183;height=25;boundedLbl=1;verticalAlign=middle;align=left;spacingLeft=5;rounded=0;sketch=0;fontColor=#393C56;strokeColor=#E07A5F;fillColor=#F2CC8F;" parent="jhzmH9sGURhkH7dmUOn7-1" vertex="1">
                    <mxGeometry x="33" y="26" width="1660" height="617" as="geometry"/>
                </mxCell>
                <mxCell id="qq8oyvFywJaDq00qT5z6-2" value="WRITE_ALL:sub-Job state machine" style="shape=umlFrame;whiteSpace=wrap;html=1;width=206;height=30;boundedLbl=1;verticalAlign=middle;align=left;spacingLeft=5;rounded=0;sketch=0;fontColor=#393C56;strokeColor=#E07A5F;fillColor=#F2CC8F;" parent="jhzmH9sGURhkH7dmUOn7-1" vertex="1">
                    <mxGeometry x="320" y="650" width="440" height="200" as="geometry"/>
                </mxCell>
                <mxCell id="NTMlEb6SdTL93X1Lcj7S-4" style="edgeStyle=orthogonalEdgeStyle;curved=0;rounded=1;sketch=0;orthogonalLoop=1;jettySize=auto;html=1;exitX=0.5;exitY=1;exitDx=0;exitDy=0;entryX=0.5;entryY=0;entryDx=0;entryDy=0;fontColor=#393C56;strokeColor=#E07A5F;fillColor=#F2CC8F;labelBackgroundColor=#F4F1DE;" parent="jhzmH9sGURhkH7dmUOn7-1" source="NTMlEb6SdTL93X1Lcj7S-2" target="NTMlEb6SdTL93X1Lcj7S-3" edge="1">
                    <mxGeometry relative="1" as="geometry"/>
                </mxCell>
                <mxCell id="NTMlEb6SdTL93X1Lcj7S-11" style="edgeStyle=orthogonalEdgeStyle;curved=0;rounded=1;sketch=0;orthogonalLoop=1;jettySize=auto;html=1;exitX=1;exitY=0.5;exitDx=0;exitDy=0;entryX=0;entryY=0.5;entryDx=0;entryDy=0;fontColor=#393C56;strokeColor=#E07A5F;fillColor=#F2CC8F;labelBackgroundColor=#F4F1DE;" parent="jhzmH9sGURhkH7dmUOn7-1" source="NTMlEb6SdTL93X1Lcj7S-2" target="NTMlEb6SdTL93X1Lcj7S-10" edge="1">
                    <mxGeometry relative="1" as="geometry"/>
                </mxCell>
                <mxCell id="NTMlEb6SdTL93X1Lcj7S-48" style="edgeStyle=orthogonalEdgeStyle;curved=0;rounded=1;sketch=0;orthogonalLoop=1;jettySize=auto;html=1;exitX=0;exitY=1;exitDx=0;exitDy=0;entryX=1;entryY=1;entryDx=0;entryDy=0;fontColor=#393C56;strokeColor=#E07A5F;fillColor=#F2CC8F;labelBackgroundColor=#F4F1DE;" parent="jhzmH9sGURhkH7dmUOn7-1" source="NTMlEb6SdTL93X1Lcj7S-2" target="NTMlEb6SdTL93X1Lcj7S-12" edge="1">
                    <mxGeometry relative="1" as="geometry"/>
                </mxCell>
                <mxCell id="NTMlEb6SdTL93X1Lcj7S-2" value="WRITEALL_PROC_BLOCK" style="html=1;align=center;verticalAlign=middle;rounded=1;absoluteArcSize=1;arcSize=10;dashed=0;sketch=0;fontColor=#393C56;strokeColor=#E07A5F;fillColor=#F2CC8F;" parent="jhzmH9sGURhkH7dmUOn7-1" vertex="1">
                    <mxGeometry x="755" y="140" width="180" height="40" as="geometry"/>
                </mxCell>
                <mxCell id="NTMlEb6SdTL93X1Lcj7S-9" style="edgeStyle=orthogonalEdgeStyle;curved=0;rounded=1;sketch=0;orthogonalLoop=1;jettySize=auto;html=1;exitX=0.5;exitY=1;exitDx=0;exitDy=0;entryX=0.5;entryY=0;entryDx=0;entryDy=0;fontColor=#393C56;strokeColor=#E07A5F;fillColor=#F2CC8F;labelBackgroundColor=#F4F1DE;" parent="jhzmH9sGURhkH7dmUOn7-1" source="NTMlEb6SdTL93X1Lcj7S-3" target="NTMlEb6SdTL93X1Lcj7S-8" edge="1">
                    <mxGeometry relative="1" as="geometry"/>
                </mxCell>
                <mxCell id="NTMlEb6SdTL93X1Lcj7S-3" value="FSM_FINISHED" style="html=1;align=center;verticalAlign=middle;rounded=1;absoluteArcSize=1;arcSize=10;dashed=0;sketch=0;fontColor=#393C56;strokeColor=#E07A5F;fillColor=#F2CC8F;" parent="jhzmH9sGURhkH7dmUOn7-1" vertex="1">
                    <mxGeometry x="775" y="445" width="140" height="40" as="geometry"/>
                </mxCell>
                <mxCell id="NTMlEb6SdTL93X1Lcj7S-5" value="&lt;div&gt;[NvM_QryCancelWriteAll()&amp;amp;&amp;amp;NvM_QryTrue()]/&lt;/div&gt;&lt;div&gt;{NvM_ActNop();NvM_ActNop();}&lt;/div&gt;" style="text;html=1;align=center;verticalAlign=middle;resizable=0;points=[];autosize=1;strokeColor=none;fontColor=#393C56;" parent="jhzmH9sGURhkH7dmUOn7-1" vertex="1">
                    <mxGeometry x="801" y="248" width="260" height="30" as="geometry"/>
                </mxCell>
                <mxCell id="NTMlEb6SdTL93X1Lcj7S-8" value="" style="ellipse;html=1;shape=endState;fillColor=#F2CC8F;strokeColor=#E07A5F;rounded=0;sketch=0;fontColor=#393C56;verticalAlign=middle;" parent="jhzmH9sGURhkH7dmUOn7-1" vertex="1">
                    <mxGeometry x="830" y="555" width="30" height="30" as="geometry"/>
                </mxCell>
                <mxCell id="NTMlEb6SdTL93X1Lcj7S-28" style="edgeStyle=orthogonalEdgeStyle;curved=0;rounded=1;sketch=0;orthogonalLoop=1;jettySize=auto;html=1;exitX=0.75;exitY=1;exitDx=0;exitDy=0;entryX=1;entryY=0.5;entryDx=0;entryDy=0;fontColor=#393C56;strokeColor=#E07A5F;fillColor=#F2CC8F;labelBackgroundColor=#F4F1DE;" parent="jhzmH9sGURhkH7dmUOn7-1" source="NTMlEb6SdTL93X1Lcj7S-10" target="NTMlEb6SdTL93X1Lcj7S-3" edge="1">
                    <mxGeometry relative="1" as="geometry"/>
                </mxCell>
                <mxCell id="NTMlEb6SdTL93X1Lcj7S-50" style="edgeStyle=orthogonalEdgeStyle;curved=0;rounded=1;sketch=0;orthogonalLoop=1;jettySize=auto;html=1;exitX=0.25;exitY=1;exitDx=0;exitDy=0;entryX=0.75;entryY=0;entryDx=0;entryDy=0;fontColor=#393C56;strokeColor=#E07A5F;fillColor=#F2CC8F;labelBackgroundColor=#F4F1DE;" parent="jhzmH9sGURhkH7dmUOn7-1" source="NTMlEb6SdTL93X1Lcj7S-10" target="NTMlEb6SdTL93X1Lcj7S-3" edge="1">
                    <mxGeometry relative="1" as="geometry">
                        <Array as="points">
                            <mxPoint x="1323" y="335"/>
                            <mxPoint x="880" y="335"/>
                        </Array>
                    </mxGeometry>
                </mxCell>
                <mxCell id="NTMlEb6SdTL93X1Lcj7S-10" value="WRITEALL_WAIT_MEMHWA" style="html=1;align=center;verticalAlign=middle;rounded=1;absoluteArcSize=1;arcSize=10;dashed=0;sketch=0;fontColor=#393C56;strokeColor=#E07A5F;fillColor=#F2CC8F;" parent="jhzmH9sGURhkH7dmUOn7-1" vertex="1">
                    <mxGeometry x="1280" y="140" width="170" height="40" as="geometry"/>
                </mxCell>
                <mxCell id="NTMlEb6SdTL93X1Lcj7S-49" style="edgeStyle=orthogonalEdgeStyle;curved=0;rounded=1;sketch=0;orthogonalLoop=1;jettySize=auto;html=1;exitX=1;exitY=0;exitDx=0;exitDy=0;entryX=0;entryY=0;entryDx=0;entryDy=0;fontColor=#393C56;strokeColor=#E07A5F;fillColor=#F2CC8F;labelBackgroundColor=#F4F1DE;" parent="jhzmH9sGURhkH7dmUOn7-1" source="NTMlEb6SdTL93X1Lcj7S-12" target="NTMlEb6SdTL93X1Lcj7S-2" edge="1">
                    <mxGeometry relative="1" as="geometry"/>
                </mxCell>
                <mxCell id="NTMlEb6SdTL93X1Lcj7S-12" value="WRITEALL_WRITE_FSM" style="html=1;align=center;verticalAlign=middle;rounded=1;absoluteArcSize=1;arcSize=10;dashed=0;sketch=0;fontColor=#393C56;strokeColor=#E07A5F;fillColor=#F2CC8F;" parent="jhzmH9sGURhkH7dmUOn7-1" vertex="1">
                    <mxGeometry x="210" y="140" width="170" height="40" as="geometry"/>
                </mxCell>
                <mxCell id="NTMlEb6SdTL93X1Lcj7S-13" value="&lt;div&gt;[NvM_QryLastBlockDone_WriteAll()&amp;amp;&amp;amp;NvM_QryTrue()]/&lt;/div&gt;&lt;div&gt;{NvM_ActNop();NvM_ActNop();}&lt;/div&gt;" style="text;html=1;align=center;verticalAlign=middle;resizable=0;points=[];autosize=1;strokeColor=none;fontColor=#393C56;" parent="jhzmH9sGURhkH7dmUOn7-1" vertex="1">
                    <mxGeometry x="967" y="130" width="310" height="30" as="geometry"/>
                </mxCell>
                <mxCell id="NTMlEb6SdTL93X1Lcj7S-14" value="2" style="text;html=1;align=center;verticalAlign=middle;resizable=0;points=[];autosize=1;strokeColor=none;fontColor=#393C56;" parent="jhzmH9sGURhkH7dmUOn7-1" vertex="1">
                    <mxGeometry x="940" y="142" width="20" height="20" as="geometry"/>
                </mxCell>
                <mxCell id="NTMlEb6SdTL93X1Lcj7S-15" value="1" style="text;html=1;align=center;verticalAlign=middle;resizable=0;points=[];autosize=1;strokeColor=none;fontColor=#393C56;" parent="jhzmH9sGURhkH7dmUOn7-1" vertex="1">
                    <mxGeometry x="840" y="185" width="20" height="20" as="geometry"/>
                </mxCell>
                <mxCell id="NTMlEb6SdTL93X1Lcj7S-17" value="&lt;div&gt;&lt;font color=&quot;#3333ff&quot;&gt;/*Start sub job*/&lt;/font&gt;&lt;/div&gt;&lt;div&gt;[NvM_QryBlockWriteAll()&amp;amp;&amp;amp;NvM_QryTrue()]/&lt;/div&gt;&lt;div&gt;{NvM_SetBlockPendingWriteAll();NvM_ActInitWriteBlockFsm();}&lt;/div&gt;" style="text;html=1;align=center;verticalAlign=middle;resizable=0;points=[];autosize=1;strokeColor=none;fontColor=#393C56;" parent="jhzmH9sGURhkH7dmUOn7-1" vertex="1">
                    <mxGeometry x="380" y="155" width="360" height="50" as="geometry"/>
                </mxCell>
                <mxCell id="NTMlEb6SdTL93X1Lcj7S-18" value="3" style="text;html=1;align=center;verticalAlign=middle;resizable=0;points=[];autosize=1;strokeColor=none;fontColor=#393C56;" parent="jhzmH9sGURhkH7dmUOn7-1" vertex="1">
                    <mxGeometry x="735" y="170" width="20" height="20" as="geometry"/>
                </mxCell>
                <mxCell id="NTMlEb6SdTL93X1Lcj7S-19" style="edgeStyle=orthogonalEdgeStyle;curved=0;rounded=1;sketch=0;orthogonalLoop=1;jettySize=auto;html=1;exitX=1;exitY=0;exitDx=0;exitDy=0;entryX=0.5;entryY=0;entryDx=0;entryDy=0;fontColor=#393C56;strokeColor=#E07A5F;fillColor=#F2CC8F;labelBackgroundColor=#F4F1DE;" parent="jhzmH9sGURhkH7dmUOn7-1" source="NTMlEb6SdTL93X1Lcj7S-2" target="NTMlEb6SdTL93X1Lcj7S-2" edge="1">
                    <mxGeometry relative="1" as="geometry">
                        <Array as="points">
                            <mxPoint x="935" y="105"/>
                            <mxPoint x="845" y="105"/>
                        </Array>
                    </mxGeometry>
                </mxCell>
                <mxCell id="NTMlEb6SdTL93X1Lcj7S-20" value="{NvM_ActSetReqSkipped(),NvM_ActInitNextBlockWriteAll();}" style="text;html=1;align=center;verticalAlign=middle;resizable=0;points=[];autosize=1;strokeColor=none;fontColor=#393C56;" parent="jhzmH9sGURhkH7dmUOn7-1" vertex="1">
                    <mxGeometry x="811" y="82" width="340" height="20" as="geometry"/>
                </mxCell>
                <mxCell id="NTMlEb6SdTL93X1Lcj7S-21" value="4" style="text;html=1;align=center;verticalAlign=middle;resizable=0;points=[];autosize=1;strokeColor=none;fontColor=#393C56;" parent="jhzmH9sGURhkH7dmUOn7-1" vertex="1">
                    <mxGeometry x="907" y="121" width="20" height="20" as="geometry"/>
                </mxCell>
                <mxCell id="NTMlEb6SdTL93X1Lcj7S-23" value="&lt;div&gt;[NvM_QryCancelWriteAll()&amp;amp;&amp;amp;NvM_QryTrue()]/&lt;/div&gt;&lt;div&gt;{NvM_ActNop();NvM_ActNop();}&lt;/div&gt;" style="text;html=1;align=center;verticalAlign=middle;resizable=0;points=[];autosize=1;strokeColor=none;fontColor=#393C56;" parent="jhzmH9sGURhkH7dmUOn7-1" vertex="1">
                    <mxGeometry x="980" y="305" width="260" height="30" as="geometry"/>
                </mxCell>
                <mxCell id="NTMlEb6SdTL93X1Lcj7S-24" value="1" style="text;html=1;align=center;verticalAlign=middle;resizable=0;points=[];autosize=1;strokeColor=none;fontColor=#393C56;" parent="jhzmH9sGURhkH7dmUOn7-1" vertex="1">
                    <mxGeometry x="1300" y="180" width="20" height="20" as="geometry"/>
                </mxCell>
                <mxCell id="NTMlEb6SdTL93X1Lcj7S-25" style="edgeStyle=orthogonalEdgeStyle;curved=0;rounded=1;sketch=0;orthogonalLoop=1;jettySize=auto;html=1;exitX=1;exitY=0.25;exitDx=0;exitDy=0;entryX=0.5;entryY=0;entryDx=0;entryDy=0;fontColor=#393C56;strokeColor=#E07A5F;fillColor=#F2CC8F;labelBackgroundColor=#F4F1DE;" parent="jhzmH9sGURhkH7dmUOn7-1" source="NTMlEb6SdTL93X1Lcj7S-10" target="NTMlEb6SdTL93X1Lcj7S-10" edge="1">
                    <mxGeometry relative="1" as="geometry">
                        <Array as="points">
                            <mxPoint x="1470" y="150"/>
                            <mxPoint x="1470" y="105"/>
                            <mxPoint x="1365" y="105"/>
                        </Array>
                    </mxGeometry>
                </mxCell>
                <mxCell id="NTMlEb6SdTL93X1Lcj7S-26" value="&lt;div&gt;[NvM_QryMemHwaBusy()&amp;amp;&amp;amp;NvM_QryTrue()]/&lt;/div&gt;&lt;div&gt;{NvM_ActWait();NvM_ActNop();}&lt;/div&gt;" style="text;html=1;align=center;verticalAlign=middle;resizable=0;points=[];autosize=1;strokeColor=none;fontColor=#393C56;" parent="jhzmH9sGURhkH7dmUOn7-1" vertex="1">
                    <mxGeometry x="1280" y="70" width="260" height="30" as="geometry"/>
                </mxCell>
                <mxCell id="NTMlEb6SdTL93X1Lcj7S-27" value="2" style="text;html=1;align=center;verticalAlign=middle;resizable=0;points=[];autosize=1;strokeColor=none;fontColor=#393C56;" parent="jhzmH9sGURhkH7dmUOn7-1" vertex="1">
                    <mxGeometry x="1450" y="125" width="20" height="20" as="geometry"/>
                </mxCell>
                <mxCell id="NTMlEb6SdTL93X1Lcj7S-29" value="3" style="text;html=1;align=center;verticalAlign=middle;resizable=0;points=[];autosize=1;strokeColor=none;fontColor=#393C56;" parent="jhzmH9sGURhkH7dmUOn7-1" vertex="1">
                    <mxGeometry x="1380" y="180" width="20" height="20" as="geometry"/>
                </mxCell>
                <mxCell id="NTMlEb6SdTL93X1Lcj7S-31" style="edgeStyle=orthogonalEdgeStyle;curved=0;rounded=1;sketch=0;orthogonalLoop=1;jettySize=auto;html=1;exitX=0.75;exitY=1;exitDx=0;exitDy=0;entryX=0.218;entryY=0.95;entryDx=0;entryDy=0;entryPerimeter=0;fontColor=#393C56;strokeColor=#E07A5F;fillColor=#F2CC8F;labelBackgroundColor=#F4F1DE;" parent="jhzmH9sGURhkH7dmUOn7-1" source="NTMlEb6SdTL93X1Lcj7S-12" target="NTMlEb6SdTL93X1Lcj7S-12" edge="1">
                    <mxGeometry relative="1" as="geometry"/>
                </mxCell>
                <mxCell id="NTMlEb6SdTL93X1Lcj7S-32" value="&lt;div&gt;[NvM_QrySubFsmRunning()&amp;amp;&amp;amp;NvM_QryTrue()]/&lt;/div&gt;&lt;div&gt;{NvM_ActNop();NvM_ActNop();}&lt;/div&gt;&lt;div&gt;&lt;br&gt;&lt;/div&gt;" style="text;html=1;align=center;verticalAlign=middle;resizable=0;points=[];autosize=1;strokeColor=none;fontColor=#393C56;" parent="jhzmH9sGURhkH7dmUOn7-1" vertex="1">
                    <mxGeometry x="120" y="205" width="270" height="50" as="geometry"/>
                </mxCell>
                <mxCell id="NTMlEb6SdTL93X1Lcj7S-36" value="&lt;div&gt;{NvM_ActInitNextBlockWriteAll();NvM_ActNop();}&lt;/div&gt;&lt;div&gt;&lt;br&gt;&lt;/div&gt;" style="text;html=1;align=center;verticalAlign=middle;resizable=0;points=[];autosize=1;strokeColor=none;fontColor=#393C56;" parent="jhzmH9sGURhkH7dmUOn7-1" vertex="1">
                    <mxGeometry x="455" y="95" width="280" height="30" as="geometry"/>
                </mxCell>
                <mxCell id="NTMlEb6SdTL93X1Lcj7S-45" value="1" style="text;html=1;align=center;verticalAlign=middle;resizable=0;points=[];autosize=1;strokeColor=none;fontColor=#393C56;" parent="jhzmH9sGURhkH7dmUOn7-1" vertex="1">
                    <mxGeometry x="310" y="180" width="20" height="20" as="geometry"/>
                </mxCell>
                <mxCell id="NTMlEb6SdTL93X1Lcj7S-47" value="2" style="text;html=1;align=center;verticalAlign=middle;resizable=0;points=[];autosize=1;strokeColor=none;fontColor=#393C56;" parent="jhzmH9sGURhkH7dmUOn7-1" vertex="1">
                    <mxGeometry x="360" y="115" width="20" height="20" as="geometry"/>
                </mxCell>
                <mxCell id="qq8oyvFywJaDq00qT5z6-0" value="Write Block" style="shape=folder;align=center;verticalAlign=middle;fontStyle=0;tabWidth=100;tabHeight=30;tabPosition=left;html=1;boundedLbl=1;labelInHeader=1;rounded=1;absoluteArcSize=1;arcSize=10;sketch=0;fontColor=#393C56;strokeColor=#E07A5F;fillColor=#F2CC8F;" parent="jhzmH9sGURhkH7dmUOn7-1" vertex="1">
                    <mxGeometry x="550" y="700" width="140" height="90" as="geometry"/>
                </mxCell>
                <mxCell id="qq8oyvFywJaDq00qT5z6-3" value="" style="ellipse;html=1;shape=startState;fillColor=#F2CC8F;strokeColor=#E07A5F;rounded=0;sketch=0;fontColor=#393C56;verticalAlign=middle;" parent="jhzmH9sGURhkH7dmUOn7-1" vertex="1">
                    <mxGeometry x="330" y="745" width="30" height="30" as="geometry"/>
                </mxCell>
                <mxCell id="qq8oyvFywJaDq00qT5z6-4" value="" style="edgeStyle=orthogonalEdgeStyle;html=1;verticalAlign=bottom;endArrow=open;endSize=8;strokeColor=#E07A5F;fontColor=#393C56;fillColor=#F2CC8F;entryX=0;entryY=0;entryDx=0;entryDy=60;entryPerimeter=0;labelBackgroundColor=#F4F1DE;" parent="jhzmH9sGURhkH7dmUOn7-1" source="qq8oyvFywJaDq00qT5z6-3" target="qq8oyvFywJaDq00qT5z6-0" edge="1">
                    <mxGeometry relative="1" as="geometry">
                        <mxPoint x="335" y="880" as="targetPoint"/>
                    </mxGeometry>
                </mxCell>
                <mxCell id="WC_DGRZKfcbe7amXGsLB-0" value="" style="ellipse;html=1;shape=startState;fillColor=#F2CC8F;strokeColor=#E07A5F;rounded=0;sketch=0;fontColor=#393C56;" parent="jhzmH9sGURhkH7dmUOn7-1" vertex="1">
                    <mxGeometry x="786" y="28" width="30" height="30" as="geometry"/>
                </mxCell>
                <mxCell id="WC_DGRZKfcbe7amXGsLB-1" value="" style="edgeStyle=orthogonalEdgeStyle;html=1;verticalAlign=bottom;endArrow=open;endSize=8;strokeColor=#E07A5F;fontColor=#393C56;fillColor=#F2CC8F;labelBackgroundColor=#F4F1DE;entryX=0.25;entryY=0;entryDx=0;entryDy=0;" parent="jhzmH9sGURhkH7dmUOn7-1" source="WC_DGRZKfcbe7amXGsLB-0" target="NTMlEb6SdTL93X1Lcj7S-2" edge="1">
                    <mxGeometry relative="1" as="geometry">
                        <mxPoint x="708" y="531" as="targetPoint"/>
                    </mxGeometry>
                </mxCell>
            </root>
        </mxGraphModel>
    </diagram>
    <diagram id="ZVl9Xj9G67x0-FLoUUDT" name="READ_ALL">
        <mxGraphModel dx="2692" dy="2355" grid="0" gridSize="10" guides="1" tooltips="1" connect="1" arrows="1" fold="1" page="1" pageScale="1" pageWidth="850" pageHeight="1400" background="#F4F1DE" math="0" shadow="0">
            <root>
                <mxCell id="U_OhTNyw5bPKMyh6dlVL-0"/>
                <mxCell id="U_OhTNyw5bPKMyh6dlVL-1" parent="U_OhTNyw5bPKMyh6dlVL-0"/>
                <mxCell id="w0H9VDgq5pxEJN4KH1Zf-0" value="READ_ALL:Job state machine" style="shape=umlFrame;whiteSpace=wrap;html=1;width=183;height=25;boundedLbl=1;verticalAlign=middle;align=left;spacingLeft=5;rounded=0;sketch=0;fontColor=#393C56;strokeColor=#E07A5F;fillColor=#F2CC8F;" vertex="1" parent="U_OhTNyw5bPKMyh6dlVL-1">
                    <mxGeometry x="-218" y="-38.5" width="1838" height="577" as="geometry"/>
                </mxCell>
                <mxCell id="5XZOn70wIVb5nkS99HmG-4" style="edgeStyle=orthogonalEdgeStyle;curved=0;rounded=1;sketch=0;orthogonalLoop=1;jettySize=auto;html=1;exitX=0.5;exitY=1;exitDx=0;exitDy=0;entryX=0;entryY=0;entryDx=0;entryDy=0;fontColor=#393C56;strokeColor=#E07A5F;fillColor=#F2CC8F;labelBackgroundColor=#F4F1DE;" parent="U_OhTNyw5bPKMyh6dlVL-1" source="f9seHzpXCGnWUC1UuQFS-0" target="5XZOn70wIVb5nkS99HmG-2" edge="1">
                    <mxGeometry relative="1" as="geometry"/>
                </mxCell>
                <mxCell id="f9seHzpXCGnWUC1UuQFS-0" value="READALL_PROC_CONFIG_ID" style="html=1;align=center;verticalAlign=middle;rounded=1;absoluteArcSize=1;arcSize=10;dashed=0;sketch=0;fontColor=#393C56;strokeColor=#E07A5F;fillColor=#F2CC8F;" parent="U_OhTNyw5bPKMyh6dlVL-1" vertex="1">
                    <mxGeometry x="140" y="75" width="180" height="40" as="geometry"/>
                </mxCell>
                <mxCell id="5XZOn70wIVb5nkS99HmG-0" style="edgeStyle=orthogonalEdgeStyle;curved=0;rounded=1;sketch=0;orthogonalLoop=1;jettySize=auto;html=1;exitX=0.75;exitY=0;exitDx=0;exitDy=0;entryX=0.25;entryY=0;entryDx=0;entryDy=0;fontColor=#393C56;strokeColor=#E07A5F;fillColor=#F2CC8F;labelBackgroundColor=#F4F1DE;" parent="U_OhTNyw5bPKMyh6dlVL-1" source="f9seHzpXCGnWUC1UuQFS-0" target="f9seHzpXCGnWUC1UuQFS-0" edge="1">
                    <mxGeometry relative="1" as="geometry">
                        <Array as="points">
                            <mxPoint x="275" y="55"/>
                            <mxPoint x="185" y="55"/>
                        </Array>
                    </mxGeometry>
                </mxCell>
                <mxCell id="5XZOn70wIVb5nkS99HmG-1" value="&lt;div&gt;[NvM_QrySubFsmRunning()&amp;amp;&amp;amp;NvM_QryTrue()]/&lt;/div&gt;&lt;div&gt;{NvM_ActNop();NvM_ActNop();}&lt;/div&gt;" style="text;html=1;align=center;verticalAlign=middle;resizable=0;points=[];autosize=1;strokeColor=none;fontColor=#393C56;" parent="U_OhTNyw5bPKMyh6dlVL-1" vertex="1">
                    <mxGeometry x="90" y="25" width="270" height="30" as="geometry"/>
                </mxCell>
                <mxCell id="5XZOn70wIVb5nkS99HmG-13" style="edgeStyle=orthogonalEdgeStyle;curved=0;rounded=1;sketch=0;orthogonalLoop=1;jettySize=auto;html=1;exitX=0.5;exitY=1;exitDx=0;exitDy=0;entryX=0.5;entryY=0;entryDx=0;entryDy=0;fontColor=#393C56;strokeColor=#E07A5F;fillColor=#F2CC8F;labelBackgroundColor=#F4F1DE;" parent="U_OhTNyw5bPKMyh6dlVL-1" source="5XZOn70wIVb5nkS99HmG-2" target="5XZOn70wIVb5nkS99HmG-12" edge="1">
                    <mxGeometry relative="1" as="geometry"/>
                </mxCell>
                <mxCell id="5XZOn70wIVb5nkS99HmG-17" style="edgeStyle=orthogonalEdgeStyle;curved=0;rounded=1;sketch=0;orthogonalLoop=1;jettySize=auto;html=1;exitX=0;exitY=1;exitDx=0;exitDy=0;entryX=1;entryY=0.5;entryDx=0;entryDy=0;fontColor=#393C56;strokeColor=#E07A5F;fillColor=#F2CC8F;labelBackgroundColor=#F4F1DE;" parent="U_OhTNyw5bPKMyh6dlVL-1" source="5XZOn70wIVb5nkS99HmG-2" target="5XZOn70wIVb5nkS99HmG-16" edge="1">
                    <mxGeometry relative="1" as="geometry">
                        <Array as="points">
                            <mxPoint x="290" y="260"/>
                            <mxPoint x="290" y="340"/>
                        </Array>
                    </mxGeometry>
                </mxCell>
                <mxCell id="5XZOn70wIVb5nkS99HmG-20" style="edgeStyle=orthogonalEdgeStyle;curved=0;rounded=1;sketch=0;orthogonalLoop=1;jettySize=auto;html=1;exitX=1;exitY=0.5;exitDx=0;exitDy=0;entryX=0;entryY=0.5;entryDx=0;entryDy=0;fontColor=#393C56;strokeColor=#E07A5F;fillColor=#F2CC8F;labelBackgroundColor=#F4F1DE;" parent="U_OhTNyw5bPKMyh6dlVL-1" source="5XZOn70wIVb5nkS99HmG-2" target="5XZOn70wIVb5nkS99HmG-19" edge="1">
                    <mxGeometry relative="1" as="geometry"/>
                </mxCell>
                <mxCell id="5XZOn70wIVb5nkS99HmG-2" value="READALL_PROC_RAM_BLOCK" style="html=1;align=center;verticalAlign=middle;rounded=1;absoluteArcSize=1;arcSize=10;dashed=0;sketch=0;fontColor=#393C56;strokeColor=#E07A5F;fillColor=#F2CC8F;" parent="U_OhTNyw5bPKMyh6dlVL-1" vertex="1">
                    <mxGeometry x="335" y="220" width="180" height="40" as="geometry"/>
                </mxCell>
                <mxCell id="5XZOn70wIVb5nkS99HmG-3" value="1" style="text;html=1;align=center;verticalAlign=middle;resizable=0;points=[];autosize=1;strokeColor=none;fontColor=#393C56;" parent="U_OhTNyw5bPKMyh6dlVL-1" vertex="1">
                    <mxGeometry x="270" y="55" width="20" height="20" as="geometry"/>
                </mxCell>
                <mxCell id="5XZOn70wIVb5nkS99HmG-5" value="2" style="text;html=1;align=center;verticalAlign=middle;resizable=0;points=[];autosize=1;strokeColor=none;fontColor=#393C56;" parent="U_OhTNyw5bPKMyh6dlVL-1" vertex="1">
                    <mxGeometry x="230" y="115" width="20" height="20" as="geometry"/>
                </mxCell>
                <mxCell id="5XZOn70wIVb5nkS99HmG-7" value="&lt;div&gt;{NvM_ActFinishCfgIdCheck();NvM_ActInitNextBlockReadAll();}&lt;/div&gt;&lt;div&gt;&lt;br&gt;&lt;/div&gt;" style="text;html=1;align=center;verticalAlign=middle;resizable=0;points=[];autosize=1;strokeColor=none;fontColor=#393C56;" parent="U_OhTNyw5bPKMyh6dlVL-1" vertex="1">
                    <mxGeometry x="40" y="140" width="350" height="30" as="geometry"/>
                </mxCell>
                <mxCell id="5XZOn70wIVb5nkS99HmG-9" value="&lt;div&gt;[NvM_QryLastBlockDone_ReadAll()&amp;amp;&amp;amp;NvM_QryTrue()]/&lt;/div&gt;&lt;div&gt;{NvM_ActNop();NvM_ActNop();}&lt;/div&gt;" style="text;html=1;align=center;verticalAlign=middle;resizable=0;points=[];autosize=1;strokeColor=none;fontColor=#393C56;" parent="U_OhTNyw5bPKMyh6dlVL-1" vertex="1">
                    <mxGeometry x="-15" y="305" width="310" height="30" as="geometry"/>
                </mxCell>
                <mxCell id="5XZOn70wIVb5nkS99HmG-27" style="edgeStyle=orthogonalEdgeStyle;curved=0;rounded=1;sketch=0;orthogonalLoop=1;jettySize=auto;html=1;exitX=1;exitY=0.25;exitDx=0;exitDy=0;entryX=1;entryY=0.75;entryDx=0;entryDy=0;fontColor=#393C56;strokeColor=#E07A5F;fillColor=#F2CC8F;labelBackgroundColor=#F4F1DE;" parent="U_OhTNyw5bPKMyh6dlVL-1" source="5XZOn70wIVb5nkS99HmG-12" target="5XZOn70wIVb5nkS99HmG-2" edge="1">
                    <mxGeometry relative="1" as="geometry">
                        <Array as="points">
                            <mxPoint x="770" y="330"/>
                            <mxPoint x="770" y="250"/>
                        </Array>
                    </mxGeometry>
                </mxCell>
                <mxCell id="5XZOn70wIVb5nkS99HmG-30" style="edgeStyle=orthogonalEdgeStyle;curved=0;rounded=1;sketch=0;orthogonalLoop=1;jettySize=auto;html=1;exitX=0.5;exitY=1;exitDx=0;exitDy=0;entryX=0.25;entryY=1;entryDx=0;entryDy=0;fontColor=#393C56;strokeColor=#E07A5F;fillColor=#F2CC8F;labelBackgroundColor=#F4F1DE;" parent="U_OhTNyw5bPKMyh6dlVL-1" source="5XZOn70wIVb5nkS99HmG-12" target="5XZOn70wIVb5nkS99HmG-19" edge="1">
                    <mxGeometry relative="1" as="geometry">
                        <Array as="points">
                            <mxPoint x="425" y="450"/>
                            <mxPoint x="825" y="450"/>
                        </Array>
                    </mxGeometry>
                </mxCell>
                <mxCell id="5XZOn70wIVb5nkS99HmG-12" value="READALL_CHK_RAM_VALIDITY" style="html=1;align=center;verticalAlign=middle;rounded=1;absoluteArcSize=1;arcSize=10;dashed=0;sketch=0;fontColor=#393C56;strokeColor=#E07A5F;fillColor=#F2CC8F;" parent="U_OhTNyw5bPKMyh6dlVL-1" vertex="1">
                    <mxGeometry x="335" y="320" width="180" height="40" as="geometry"/>
                </mxCell>
                <mxCell id="5XZOn70wIVb5nkS99HmG-14" value="&lt;div&gt;[NvM_QryRamValid()&amp;amp;&amp;amp;NvM_QryCrcBusy()]/&lt;/div&gt;&lt;div&gt;{NvM_ActProcessCrc();NvM_ActWait();}&lt;/div&gt;" style="text;html=1;align=center;verticalAlign=middle;resizable=0;points=[];autosize=1;strokeColor=none;fontColor=#393C56;" parent="U_OhTNyw5bPKMyh6dlVL-1" vertex="1">
                    <mxGeometry x="295" y="280" width="260" height="30" as="geometry"/>
                </mxCell>
                <mxCell id="5XZOn70wIVb5nkS99HmG-15" value="2" style="text;html=1;align=center;verticalAlign=middle;resizable=0;points=[];autosize=1;strokeColor=none;fontColor=#393C56;" parent="U_OhTNyw5bPKMyh6dlVL-1" vertex="1">
                    <mxGeometry x="420" y="260" width="20" height="20" as="geometry"/>
                </mxCell>
                <mxCell id="JMDIFHPsKF9vvMv3mcbK-2" style="edgeStyle=orthogonalEdgeStyle;curved=0;rounded=1;sketch=0;orthogonalLoop=1;jettySize=auto;html=1;exitX=0.5;exitY=1;exitDx=0;exitDy=0;entryX=0.5;entryY=0;entryDx=0;entryDy=0;fontColor=#393C56;strokeColor=#E07A5F;fillColor=#F2CC8F;" parent="U_OhTNyw5bPKMyh6dlVL-1" source="5XZOn70wIVb5nkS99HmG-16" target="JMDIFHPsKF9vvMv3mcbK-1" edge="1">
                    <mxGeometry relative="1" as="geometry"/>
                </mxCell>
                <mxCell id="5XZOn70wIVb5nkS99HmG-16" value="FSM_FINISHED" style="html=1;align=center;verticalAlign=middle;rounded=1;absoluteArcSize=1;arcSize=10;dashed=0;sketch=0;fontColor=#393C56;strokeColor=#E07A5F;fillColor=#F2CC8F;" parent="U_OhTNyw5bPKMyh6dlVL-1" vertex="1">
                    <mxGeometry x="-200" y="320" width="180" height="40" as="geometry"/>
                </mxCell>
                <mxCell id="5XZOn70wIVb5nkS99HmG-18" value="1" style="text;html=1;align=center;verticalAlign=middle;resizable=0;points=[];autosize=1;strokeColor=none;fontColor=#393C56;" parent="U_OhTNyw5bPKMyh6dlVL-1" vertex="1">
                    <mxGeometry x="315" y="240" width="20" height="20" as="geometry"/>
                </mxCell>
                <mxCell id="5XZOn70wIVb5nkS99HmG-37" style="edgeStyle=orthogonalEdgeStyle;curved=0;rounded=1;sketch=0;orthogonalLoop=1;jettySize=auto;html=1;exitX=1;exitY=0.5;exitDx=0;exitDy=0;entryX=0;entryY=0.5;entryDx=0;entryDy=0;fontColor=#393C56;strokeColor=#E07A5F;fillColor=#F2CC8F;labelBackgroundColor=#F4F1DE;" parent="U_OhTNyw5bPKMyh6dlVL-1" source="5XZOn70wIVb5nkS99HmG-19" target="5XZOn70wIVb5nkS99HmG-36" edge="1">
                    <mxGeometry relative="1" as="geometry"/>
                </mxCell>
                <mxCell id="5XZOn70wIVb5nkS99HmG-40" style="edgeStyle=orthogonalEdgeStyle;curved=0;rounded=1;sketch=0;orthogonalLoop=1;jettySize=auto;html=1;exitX=0.25;exitY=0;exitDx=0;exitDy=0;entryX=1;entryY=0;entryDx=0;entryDy=0;fontColor=#393C56;strokeColor=#E07A5F;fillColor=#F2CC8F;labelBackgroundColor=#F4F1DE;" parent="U_OhTNyw5bPKMyh6dlVL-1" source="5XZOn70wIVb5nkS99HmG-19" target="5XZOn70wIVb5nkS99HmG-2" edge="1">
                    <mxGeometry relative="1" as="geometry"/>
                </mxCell>
                <mxCell id="LpeL-qZ_TR0PhoYdjIhU-10" style="edgeStyle=orthogonalEdgeStyle;curved=0;rounded=1;sketch=0;orthogonalLoop=1;jettySize=auto;html=1;exitX=0.5;exitY=1;exitDx=0;exitDy=0;entryX=0;entryY=0.75;entryDx=0;entryDy=0;fontColor=#393C56;strokeColor=#E07A5F;fillColor=#F2CC8F;labelBackgroundColor=#F4F1DE;" parent="U_OhTNyw5bPKMyh6dlVL-1" source="5XZOn70wIVb5nkS99HmG-19" target="LpeL-qZ_TR0PhoYdjIhU-0" edge="1">
                    <mxGeometry relative="1" as="geometry">
                        <Array as="points">
                            <mxPoint x="870" y="450"/>
                            <mxPoint x="1310" y="450"/>
                        </Array>
                    </mxGeometry>
                </mxCell>
                <mxCell id="5XZOn70wIVb5nkS99HmG-19" value="READALL_CHK_SKIP" style="html=1;align=center;verticalAlign=middle;rounded=1;absoluteArcSize=1;arcSize=10;dashed=0;sketch=0;fontColor=#393C56;strokeColor=#E07A5F;fillColor=#F2CC8F;" parent="U_OhTNyw5bPKMyh6dlVL-1" vertex="1">
                    <mxGeometry x="780" y="220" width="180" height="40" as="geometry"/>
                </mxCell>
                <mxCell id="5XZOn70wIVb5nkS99HmG-21" value="3" style="text;html=1;align=center;verticalAlign=middle;resizable=0;points=[];autosize=1;strokeColor=none;fontColor=#393C56;" parent="U_OhTNyw5bPKMyh6dlVL-1" vertex="1">
                    <mxGeometry x="520" y="220" width="20" height="20" as="geometry"/>
                </mxCell>
                <mxCell id="5XZOn70wIVb5nkS99HmG-22" value="&lt;div&gt;{NvM_ActSetInitialAttr();NvM_ActNop();}&lt;/div&gt;&lt;div&gt;&lt;br&gt;&lt;/div&gt;" style="text;html=1;align=center;verticalAlign=middle;resizable=0;points=[];autosize=1;strokeColor=none;fontColor=#393C56;" parent="U_OhTNyw5bPKMyh6dlVL-1" vertex="1">
                    <mxGeometry x="540" y="221" width="230" height="30" as="geometry"/>
                </mxCell>
                <mxCell id="5XZOn70wIVb5nkS99HmG-24" style="edgeStyle=orthogonalEdgeStyle;curved=0;rounded=1;sketch=0;orthogonalLoop=1;jettySize=auto;html=1;exitX=0.75;exitY=1;exitDx=0;exitDy=0;entryX=1;entryY=0.5;entryDx=0;entryDy=0;fontColor=#393C56;strokeColor=#E07A5F;fillColor=#F2CC8F;labelBackgroundColor=#F4F1DE;" parent="U_OhTNyw5bPKMyh6dlVL-1" source="5XZOn70wIVb5nkS99HmG-12" target="5XZOn70wIVb5nkS99HmG-12" edge="1">
                    <mxGeometry relative="1" as="geometry">
                        <Array as="points">
                            <mxPoint x="470" y="400"/>
                            <mxPoint x="700" y="400"/>
                            <mxPoint x="700" y="340"/>
                        </Array>
                    </mxGeometry>
                </mxCell>
                <mxCell id="5XZOn70wIVb5nkS99HmG-25" value="&lt;div&gt;[NvM_QryCrcBusy()&amp;amp;&amp;amp;NvM_QryTrue()]/&lt;/div&gt;&lt;div&gt;{NvM_ActProcessCrc();NvM_ActWait();}&lt;/div&gt;" style="text;html=1;align=center;verticalAlign=middle;resizable=0;points=[];autosize=1;strokeColor=none;fontColor=#393C56;" parent="U_OhTNyw5bPKMyh6dlVL-1" vertex="1">
                    <mxGeometry x="470" y="370" width="230" height="30" as="geometry"/>
                </mxCell>
                <mxCell id="5XZOn70wIVb5nkS99HmG-26" value="1" style="text;html=1;align=center;verticalAlign=middle;resizable=0;points=[];autosize=1;strokeColor=none;fontColor=#393C56;" parent="U_OhTNyw5bPKMyh6dlVL-1" vertex="1">
                    <mxGeometry x="450" y="360" width="20" height="20" as="geometry"/>
                </mxCell>
                <mxCell id="5XZOn70wIVb5nkS99HmG-28" value="&lt;div&gt;[NvM_QryCrcBusy()&amp;amp;&amp;amp;NvM_QryTrue()]/&lt;/div&gt;&lt;div&gt;{NvM_ActProcessCrc();NvM_ActWait();}&lt;/div&gt;" style="text;html=1;align=center;verticalAlign=middle;resizable=0;points=[];autosize=1;strokeColor=none;fontColor=#393C56;" parent="U_OhTNyw5bPKMyh6dlVL-1" vertex="1">
                    <mxGeometry x="540" y="300" width="230" height="30" as="geometry"/>
                </mxCell>
                <mxCell id="5XZOn70wIVb5nkS99HmG-29" value="2" style="text;html=1;align=center;verticalAlign=middle;resizable=0;points=[];autosize=1;strokeColor=none;fontColor=#393C56;" parent="U_OhTNyw5bPKMyh6dlVL-1" vertex="1">
                    <mxGeometry x="510" y="310" width="20" height="20" as="geometry"/>
                </mxCell>
                <mxCell id="5XZOn70wIVb5nkS99HmG-31" value="&lt;div&gt;{NvM_ActSetInitialAttr();NvM_ActNop();}&lt;/div&gt;&lt;div&gt;&lt;br&gt;&lt;/div&gt;" style="text;html=1;align=center;verticalAlign=middle;resizable=0;points=[];autosize=1;strokeColor=none;fontColor=#393C56;" parent="U_OhTNyw5bPKMyh6dlVL-1" vertex="1">
                    <mxGeometry x="470" y="430" width="230" height="30" as="geometry"/>
                </mxCell>
                <mxCell id="5XZOn70wIVb5nkS99HmG-32" value="3" style="text;html=1;align=center;verticalAlign=middle;resizable=0;points=[];autosize=1;strokeColor=none;fontColor=#393C56;" parent="U_OhTNyw5bPKMyh6dlVL-1" vertex="1">
                    <mxGeometry x="405" y="360" width="20" height="20" as="geometry"/>
                </mxCell>
                <mxCell id="5XZOn70wIVb5nkS99HmG-35" value="1" style="text;html=1;align=center;verticalAlign=middle;resizable=0;points=[];autosize=1;strokeColor=none;fontColor=#393C56;" parent="U_OhTNyw5bPKMyh6dlVL-1" vertex="1">
                    <mxGeometry x="960" y="220" width="20" height="20" as="geometry"/>
                </mxCell>
                <mxCell id="LpeL-qZ_TR0PhoYdjIhU-12" style="edgeStyle=orthogonalEdgeStyle;curved=0;rounded=1;sketch=0;orthogonalLoop=1;jettySize=auto;html=1;entryX=0.5;entryY=0;entryDx=0;entryDy=0;fontColor=#393C56;strokeColor=#E07A5F;fillColor=#F2CC8F;exitX=0.25;exitY=0;exitDx=0;exitDy=0;labelBackgroundColor=#F4F1DE;" parent="U_OhTNyw5bPKMyh6dlVL-1" source="5XZOn70wIVb5nkS99HmG-36" target="5XZOn70wIVb5nkS99HmG-2" edge="1">
                    <mxGeometry relative="1" as="geometry">
                        <mxPoint x="1360" y="210" as="sourcePoint"/>
                        <Array as="points">
                            <mxPoint x="1355" y="120"/>
                            <mxPoint x="425" y="120"/>
                        </Array>
                    </mxGeometry>
                </mxCell>
                <mxCell id="LpeL-qZ_TR0PhoYdjIhU-22" style="edgeStyle=orthogonalEdgeStyle;curved=0;rounded=1;sketch=0;orthogonalLoop=1;jettySize=auto;html=1;exitX=0;exitY=0;exitDx=0;exitDy=0;entryX=0.75;entryY=0;entryDx=0;entryDy=0;fontColor=#393C56;strokeColor=#E07A5F;fillColor=#F2CC8F;labelBackgroundColor=#F4F1DE;" parent="U_OhTNyw5bPKMyh6dlVL-1" source="5XZOn70wIVb5nkS99HmG-36" target="5XZOn70wIVb5nkS99HmG-2" edge="1">
                    <mxGeometry relative="1" as="geometry">
                        <Array as="points">
                            <mxPoint x="1310" y="160"/>
                            <mxPoint x="470" y="160"/>
                        </Array>
                    </mxGeometry>
                </mxCell>
                <mxCell id="5XZOn70wIVb5nkS99HmG-36" value="READALL_WR_ONCE_PROT" style="html=1;align=center;verticalAlign=middle;rounded=1;absoluteArcSize=1;arcSize=10;dashed=0;sketch=0;fontColor=#393C56;strokeColor=#E07A5F;fillColor=#F2CC8F;" parent="U_OhTNyw5bPKMyh6dlVL-1" vertex="1">
                    <mxGeometry x="1310" y="220" width="180" height="40" as="geometry"/>
                </mxCell>
                <mxCell id="5XZOn70wIVb5nkS99HmG-39" value="&lt;div&gt;[NvM_QrySkipBlock()&amp;amp;&amp;amp;NvM_QryWriteBlockOnce()]/&lt;/div&gt;&lt;div&gt;{NvM_ActSetReqSkipped();NvM_ActTestBlockBlank();}&lt;/div&gt;" style="text;html=1;align=center;verticalAlign=middle;resizable=0;points=[];autosize=1;strokeColor=none;fontColor=#393C56;" parent="U_OhTNyw5bPKMyh6dlVL-1" vertex="1">
                    <mxGeometry x="980" y="210" width="310" height="30" as="geometry"/>
                </mxCell>
                <mxCell id="5XZOn70wIVb5nkS99HmG-41" value="&lt;div&gt;[NvM_QrySkipBlock()&amp;amp;&amp;amp;NvM_QryTrue()]/&lt;/div&gt;&lt;div&gt;{NvM_ActSetReqSkipped();NvM_ActInitNextBlockReadAll();}&lt;/div&gt;" style="text;html=1;align=center;verticalAlign=middle;resizable=0;points=[];autosize=1;strokeColor=none;fontColor=#393C56;" parent="U_OhTNyw5bPKMyh6dlVL-1" vertex="1">
                    <mxGeometry x="470" y="170" width="340" height="30" as="geometry"/>
                </mxCell>
                <mxCell id="5XZOn70wIVb5nkS99HmG-42" value="2" style="text;html=1;align=center;verticalAlign=middle;resizable=0;points=[];autosize=1;strokeColor=none;fontColor=#393C56;" parent="U_OhTNyw5bPKMyh6dlVL-1" vertex="1">
                    <mxGeometry x="830" y="200" width="20" height="20" as="geometry"/>
                </mxCell>
                <mxCell id="LpeL-qZ_TR0PhoYdjIhU-7" style="edgeStyle=orthogonalEdgeStyle;curved=0;rounded=1;sketch=0;orthogonalLoop=1;jettySize=auto;html=1;exitX=1;exitY=0.5;exitDx=0;exitDy=0;entryX=0.25;entryY=0;entryDx=0;entryDy=0;fontColor=#393C56;strokeColor=#E07A5F;fillColor=#F2CC8F;labelBackgroundColor=#F4F1DE;" parent="U_OhTNyw5bPKMyh6dlVL-1" source="LpeL-qZ_TR0PhoYdjIhU-0" target="5XZOn70wIVb5nkS99HmG-2" edge="1">
                    <mxGeometry relative="1" as="geometry">
                        <Array as="points">
                            <mxPoint x="1560" y="440"/>
                            <mxPoint x="1560" y="70"/>
                            <mxPoint x="380" y="70"/>
                        </Array>
                    </mxGeometry>
                </mxCell>
                <mxCell id="LpeL-qZ_TR0PhoYdjIhU-0" value="READALL_READ_NV" style="html=1;align=center;verticalAlign=middle;rounded=1;absoluteArcSize=1;arcSize=10;dashed=0;sketch=0;fontColor=#393C56;strokeColor=#E07A5F;fillColor=#F2CC8F;" parent="U_OhTNyw5bPKMyh6dlVL-1" vertex="1">
                    <mxGeometry x="1320" y="420" width="180" height="40" as="geometry"/>
                </mxCell>
                <mxCell id="LpeL-qZ_TR0PhoYdjIhU-2" value="&lt;div&gt;{NvM_ActInitReadBlockFsm();NvM_ActNop();}&lt;/div&gt;&lt;div&gt;&lt;br&gt;&lt;/div&gt;" style="text;html=1;align=center;verticalAlign=middle;resizable=0;points=[];autosize=1;strokeColor=none;fontColor=#393C56;" parent="U_OhTNyw5bPKMyh6dlVL-1" vertex="1">
                    <mxGeometry x="930" y="420" width="260" height="30" as="geometry"/>
                </mxCell>
                <mxCell id="LpeL-qZ_TR0PhoYdjIhU-4" style="edgeStyle=orthogonalEdgeStyle;curved=0;rounded=1;sketch=0;orthogonalLoop=1;jettySize=auto;html=1;exitX=0.25;exitY=1;exitDx=0;exitDy=0;entryX=0.75;entryY=1;entryDx=0;entryDy=0;fontColor=#393C56;strokeColor=#E07A5F;fillColor=#F2CC8F;labelBackgroundColor=#F4F1DE;" parent="U_OhTNyw5bPKMyh6dlVL-1" source="LpeL-qZ_TR0PhoYdjIhU-0" target="LpeL-qZ_TR0PhoYdjIhU-0" edge="1">
                    <mxGeometry relative="1" as="geometry"/>
                </mxCell>
                <mxCell id="LpeL-qZ_TR0PhoYdjIhU-5" value="&lt;font color=&quot;#3333ff&quot;&gt;/*Init Sub job to read one block*/&lt;/font&gt;&lt;br&gt;[NvM_QrySubFsmRunning()&amp;amp;&amp;amp;NvM_QryTrue()]" style="text;html=1;align=center;verticalAlign=middle;resizable=0;points=[];autosize=1;strokeColor=none;fontColor=#393C56;" parent="U_OhTNyw5bPKMyh6dlVL-1" vertex="1">
                    <mxGeometry x="1290" y="490" width="270" height="30" as="geometry"/>
                </mxCell>
                <mxCell id="LpeL-qZ_TR0PhoYdjIhU-6" value="1" style="text;html=1;align=center;verticalAlign=middle;resizable=0;points=[];autosize=1;strokeColor=none;fontColor=#393C56;" parent="U_OhTNyw5bPKMyh6dlVL-1" vertex="1">
                    <mxGeometry x="1340" y="460" width="20" height="20" as="geometry"/>
                </mxCell>
                <mxCell id="LpeL-qZ_TR0PhoYdjIhU-8" value="2" style="text;html=1;align=center;verticalAlign=middle;resizable=0;points=[];autosize=1;strokeColor=none;fontColor=#393C56;" parent="U_OhTNyw5bPKMyh6dlVL-1" vertex="1">
                    <mxGeometry x="1500" y="420" width="20" height="20" as="geometry"/>
                </mxCell>
                <mxCell id="LpeL-qZ_TR0PhoYdjIhU-9" value="&lt;div&gt;{NvM_ActInitNextBlockReadAll();NvM_ActNop();}&lt;/div&gt;&lt;div&gt;&lt;br&gt;&lt;/div&gt;" style="text;html=1;align=center;verticalAlign=middle;resizable=0;points=[];autosize=1;strokeColor=none;fontColor=#393C56;" parent="U_OhTNyw5bPKMyh6dlVL-1" vertex="1">
                    <mxGeometry x="1307" y="45" width="280" height="30" as="geometry"/>
                </mxCell>
                <mxCell id="LpeL-qZ_TR0PhoYdjIhU-11" value="3" style="text;html=1;align=center;verticalAlign=middle;resizable=0;points=[];autosize=1;strokeColor=none;fontColor=#393C56;" parent="U_OhTNyw5bPKMyh6dlVL-1" vertex="1">
                    <mxGeometry x="870" y="260" width="20" height="20" as="geometry"/>
                </mxCell>
                <mxCell id="LpeL-qZ_TR0PhoYdjIhU-13" value="2" style="text;html=1;align=center;verticalAlign=middle;resizable=0;points=[];autosize=1;strokeColor=none;fontColor=#393C56;" parent="U_OhTNyw5bPKMyh6dlVL-1" vertex="1">
                    <mxGeometry x="1340" y="200" width="20" height="20" as="geometry"/>
                </mxCell>
                <mxCell id="LpeL-qZ_TR0PhoYdjIhU-14" style="edgeStyle=orthogonalEdgeStyle;curved=0;rounded=1;sketch=0;orthogonalLoop=1;jettySize=auto;html=1;exitX=1;exitY=0;exitDx=0;exitDy=0;entryX=0.5;entryY=0;entryDx=0;entryDy=0;fontColor=#393C56;strokeColor=#E07A5F;fillColor=#F2CC8F;labelBackgroundColor=#F4F1DE;" parent="U_OhTNyw5bPKMyh6dlVL-1" source="5XZOn70wIVb5nkS99HmG-36" target="5XZOn70wIVb5nkS99HmG-36" edge="1">
                    <mxGeometry relative="1" as="geometry">
                        <Array as="points">
                            <mxPoint x="1490" y="170"/>
                            <mxPoint x="1400" y="170"/>
                        </Array>
                    </mxGeometry>
                </mxCell>
                <mxCell id="LpeL-qZ_TR0PhoYdjIhU-15" value="&lt;div&gt;[NvM_QryNvBusy()&amp;amp;&amp;amp;NvM_QryTrue()]/&lt;/div&gt;&lt;div&gt;{NvM_ActWait();NvM_ActNop();}&lt;/div&gt;" style="text;html=1;align=center;verticalAlign=middle;resizable=0;points=[];autosize=1;strokeColor=none;fontColor=#393C56;" parent="U_OhTNyw5bPKMyh6dlVL-1" vertex="1">
                    <mxGeometry x="1337" y="137" width="220" height="30" as="geometry"/>
                </mxCell>
                <mxCell id="LpeL-qZ_TR0PhoYdjIhU-16" value="1" style="text;html=1;align=center;verticalAlign=middle;resizable=0;points=[];autosize=1;strokeColor=none;fontColor=#393C56;" parent="U_OhTNyw5bPKMyh6dlVL-1" vertex="1">
                    <mxGeometry x="1470" y="200" width="20" height="20" as="geometry"/>
                </mxCell>
                <mxCell id="LpeL-qZ_TR0PhoYdjIhU-17" value="&lt;div&gt;[NvM_QryLastResultOk()&amp;amp;&amp;amp;NvM_QryTrue()]/&lt;/div&gt;&lt;div&gt;{NvM_ActFinishReadBlock();NvM_ActInitNextBlockReadAll();}&lt;/div&gt;" style="text;html=1;align=center;verticalAlign=middle;resizable=0;points=[];autosize=1;strokeColor=none;fontColor=#393C56;" parent="U_OhTNyw5bPKMyh6dlVL-1" vertex="1">
                    <mxGeometry x="790" y="80" width="350" height="30" as="geometry"/>
                </mxCell>
                <mxCell id="LpeL-qZ_TR0PhoYdjIhU-18" style="edgeStyle=orthogonalEdgeStyle;curved=0;rounded=1;sketch=0;orthogonalLoop=1;jettySize=auto;html=1;exitX=0.25;exitY=1;exitDx=0;exitDy=0;entryX=0.75;entryY=1;entryDx=0;entryDy=0;fontColor=#393C56;strokeColor=#E07A5F;fillColor=#F2CC8F;labelBackgroundColor=#F4F1DE;" parent="U_OhTNyw5bPKMyh6dlVL-1" source="5XZOn70wIVb5nkS99HmG-36" target="5XZOn70wIVb5nkS99HmG-36" edge="1">
                    <mxGeometry relative="1" as="geometry"/>
                </mxCell>
                <mxCell id="LpeL-qZ_TR0PhoYdjIhU-19" value="3" style="text;html=1;align=center;verticalAlign=middle;resizable=0;points=[];autosize=1;strokeColor=none;fontColor=#393C56;" parent="U_OhTNyw5bPKMyh6dlVL-1" vertex="1">
                    <mxGeometry x="1337" y="260" width="20" height="20" as="geometry"/>
                </mxCell>
                <mxCell id="LpeL-qZ_TR0PhoYdjIhU-20" value="&lt;div&gt;[NvM_QryRedundantBlock()&amp;amp;&amp;amp;NvM_QryTrue()]/&lt;/div&gt;&lt;div&gt;{NvM_ActSetupRedundant();NvM_ActTestBlockBlank();}&lt;/div&gt;" style="text;html=1;align=center;verticalAlign=middle;resizable=0;points=[];autosize=1;strokeColor=none;fontColor=#393C56;" parent="U_OhTNyw5bPKMyh6dlVL-1" vertex="1">
                    <mxGeometry x="1240" y="280" width="310" height="30" as="geometry"/>
                </mxCell>
                <mxCell id="LpeL-qZ_TR0PhoYdjIhU-23" value="4" style="text;html=1;align=center;verticalAlign=middle;resizable=0;points=[];autosize=1;strokeColor=none;fontColor=#393C56;" parent="U_OhTNyw5bPKMyh6dlVL-1" vertex="1">
                    <mxGeometry x="1290" y="200" width="20" height="20" as="geometry"/>
                </mxCell>
                <mxCell id="LpeL-qZ_TR0PhoYdjIhU-24" value="{NvM_ActFinishReadBlock(),NvM_ActInitNextBlockReadAll();}" style="text;html=1;align=center;verticalAlign=middle;resizable=0;points=[];autosize=1;strokeColor=none;fontColor=#393C56;" parent="U_OhTNyw5bPKMyh6dlVL-1" vertex="1">
                    <mxGeometry x="790" y="137" width="350" height="20" as="geometry"/>
                </mxCell>
                <mxCell id="Li_sVVd6smXYxnjRiJgT-0" value="&lt;span style=&quot;color: rgba(0 , 0 , 0 , 0) ; font-family: monospace ; font-size: 0px&quot;&gt;ead%R3CmxGraphModel%3E%3Croot%3E%3CmxCell%20id%3D%220%22%2F%3E%3CmxCell%20id%3D%221%22%20parent%3D%220%22%2F%3E%3CmxCell%20id%3D%222%22%20value%3D%22WRITE_ALL%3AJob%20state%20machine%22%20style%3D%22shape%3DumlFrame%3BwhiteSpace%3Dwrap%3Bhtml%3D1%3Bwidth%3D183%3Bheight%3D25%3BboundedLbl%3D1%3BverticalAlign%3Dmiddle%3Balign%3Dleft%3BspacingLeft%3D5%3Brounded%3D0%3Bsketch%3D0%3BfontColor%3D%23393C56%3BstrokeColor%3D%23E07A5F%3BfillColor%3D%23F2CC8F%3B%22%20vertex%3D%221%22%20parent%3D%221%22%3E%3CmxGeometry%20x%3D%2233%22%20y%3D%2226%22%20width%3D%221660%22%20height%3D%22617%22%20as%3D%22geometry%22%2F%3E%3C%2FmxCell%3E%3C%2Froot%3E%3C%2FmxGraphModel%3ER&lt;/span&gt;READ_ALL sub-Job state&amp;nbsp;&lt;span style=&quot;color: rgba(0 , 0 , 0 , 0) ; font-family: monospace ; font-size: 0px&quot;&gt;%3CmxGraphModel%3E%3Croot%3E%3CmxCell%20id%3D%220%22%2F%3E%3CmxCell%20id%3D%221%22%20parent%3D%220%22%2F%3E%3CmxCell%20id%3D%222%22%20value%3D%22WRITE_ALL%3AJob%20state%20machine%22%20style%3D%22shape%3DumlFrame%3BwhiteSpace%3Dwrap%3Bhtml%3D1%3Bwidth%3D183%3Bheight%3D25%3BboundedLbl%3D1%3BverticalAlign%3Dmiddle%3Balign%3Dleft%3BspacingLeft%3D5%3Brounded%3D0%3Bsketch%3D0%3BfontColor%3D%23393C56%3BstrokeColor%3D%23E07A5F%3BfillColor%3D%23F2CC8F%3B%22%20vertex%3D%221%22%20parent%3D%221%22%3E%3CmxGeometry%20x%3D%2233%22%20y%3D%2226%22%20width%3D%221660%22%20height%3D%22617%22%20as%3D%22geometry%22%2F%3E%3C%2FmxCell%3E%3C%2Froot%3E%3C%2FmxGraphModel%3E&amp;nbsp;&amp;nbsp;&lt;/span&gt;machine" style="shape=umlFrame;whiteSpace=wrap;html=1;width=205;height=23;boundedLbl=1;verticalAlign=middle;align=center;spacingLeft=5;rounded=0;sketch=0;fontColor=#393C56;strokeColor=#E07A5F;fillColor=#F2CC8F;" parent="U_OhTNyw5bPKMyh6dlVL-1" vertex="1">
                    <mxGeometry x="340" y="640" width="440" height="200" as="geometry"/>
                </mxCell>
                <mxCell id="Li_sVVd6smXYxnjRiJgT-1" value="Read Block" style="shape=folder;align=center;verticalAlign=middle;fontStyle=0;tabWidth=100;tabHeight=30;tabPosition=left;html=1;boundedLbl=1;labelInHeader=1;rounded=1;absoluteArcSize=1;arcSize=10;sketch=0;fontColor=#393C56;strokeColor=#E07A5F;fillColor=#F2CC8F;" parent="U_OhTNyw5bPKMyh6dlVL-1" vertex="1">
                    <mxGeometry x="570" y="690" width="140" height="90" as="geometry"/>
                </mxCell>
                <mxCell id="Li_sVVd6smXYxnjRiJgT-2" value="" style="ellipse;html=1;shape=startState;fillColor=#F2CC8F;strokeColor=#E07A5F;rounded=0;sketch=0;fontColor=#393C56;verticalAlign=middle;" parent="U_OhTNyw5bPKMyh6dlVL-1" vertex="1">
                    <mxGeometry x="350" y="735" width="30" height="30" as="geometry"/>
                </mxCell>
                <mxCell id="Li_sVVd6smXYxnjRiJgT-3" value="" style="edgeStyle=orthogonalEdgeStyle;html=1;verticalAlign=bottom;endArrow=open;endSize=8;strokeColor=#E07A5F;fontColor=#393C56;fillColor=#F2CC8F;entryX=0;entryY=0;entryDx=0;entryDy=60;entryPerimeter=0;labelBackgroundColor=#F4F1DE;" parent="U_OhTNyw5bPKMyh6dlVL-1" source="Li_sVVd6smXYxnjRiJgT-2" target="Li_sVVd6smXYxnjRiJgT-1" edge="1">
                    <mxGeometry relative="1" as="geometry">
                        <mxPoint x="355" y="870" as="targetPoint"/>
                    </mxGeometry>
                </mxCell>
                <mxCell id="Li_sVVd6smXYxnjRiJgT-4" value="" style="ellipse;html=1;shape=startState;fillColor=#F2CC8F;strokeColor=#E07A5F;rounded=0;sketch=0;fontColor=#393C56;verticalAlign=middle;" parent="U_OhTNyw5bPKMyh6dlVL-1" vertex="1">
                    <mxGeometry x="40" y="80" width="30" height="30" as="geometry"/>
                </mxCell>
                <mxCell id="Li_sVVd6smXYxnjRiJgT-5" value="" style="edgeStyle=orthogonalEdgeStyle;html=1;verticalAlign=bottom;endArrow=open;endSize=8;strokeColor=#E07A5F;fontColor=#393C56;fillColor=#F2CC8F;labelBackgroundColor=#F4F1DE;entryX=0;entryY=0.5;entryDx=0;entryDy=0;" parent="U_OhTNyw5bPKMyh6dlVL-1" source="Li_sVVd6smXYxnjRiJgT-4" edge="1" target="f9seHzpXCGnWUC1UuQFS-0">
                    <mxGeometry relative="1" as="geometry">
                        <mxPoint x="333" y="239" as="targetPoint"/>
                    </mxGeometry>
                </mxCell>
                <mxCell id="JMDIFHPsKF9vvMv3mcbK-1" value="" style="ellipse;html=1;shape=endState;fillColor=#F2CC8F;strokeColor=#E07A5F;rounded=0;sketch=0;fontColor=#393C56;verticalAlign=middle;" parent="U_OhTNyw5bPKMyh6dlVL-1" vertex="1">
                    <mxGeometry x="-125" y="446" width="30" height="30" as="geometry"/>
                </mxCell>
            </root>
        </mxGraphModel>
    </diagram>
    <diagram id="FXWrPDBqsAMkkRXNDENR" name="Page-9">
        <mxGraphModel dx="1346" dy="812" grid="1" gridSize="10" guides="1" tooltips="1" connect="1" arrows="1" fold="1" page="1" pageScale="1" pageWidth="850" pageHeight="1400" math="0" shadow="0">
            <root>
                <mxCell id="O04VwIxdNH21bWR8J_JQ-0"/>
                <mxCell id="O04VwIxdNH21bWR8J_JQ-1" parent="O04VwIxdNH21bWR8J_JQ-0"/>
            </root>
        </mxGraphModel>
    </diagram>
</mxfile>